<svg xmlns="http://www.w3.org/2000/svg" width="82" height="82"><path stroke="#000" stroke-miterlimit="10" d="M0 0h82v82H0z"/><text transform="translate(30.836 42.038)" fill="#FFF" font-family="'Arial-BoldMT'" font-size="11">2014</text><g fill="#FFF"><path d="M30.573 52.176l.074-.296c.498-1.956-.831-4.862-2.682-5.872l-.291-.156-.033.328c-.219 2.199.931 4.707 2.673 5.829l.259.167zm-.288-.725c-1.202-.93-2.296-2.826-2.229-4.873 1.42.985 2.45 3.235 2.229 4.873zm10.609 4.506c-.342-2.119-2.39-4.281-4.384-4.627l-.295-.053.041.297c.277 2.016 2.365 4.221 4.379 4.632l.311.063-.052-.312zm-4.145-4.124c1.597.444 3.211 2.155 3.644 3.858-1.643-.498-3.256-2.207-3.644-3.858zm-1.571 3.011l.052-.313c.323-1.94-1.031-4.59-2.785-5.452l-.287-.14-.028.315c-.211 2.388 1.235 4.54 2.775 5.429l.273.161zm-2.63-5.203c1.337.854 2.375 2.887 2.287 4.481-1.231-.858-2.321-2.565-2.287-4.481zm-9.07 2.621l-.234.172.229.178c.851.664 2.132 1.045 3.513 1.045 1.268 0 2.42-.331 3.162-.904l.239-.186-.251-.17c-.828-.558-2.173-.89-3.598-.89-1.287 0-2.403.272-3.06.755zm3.509.957c-1.132 0-2.219-.283-2.983-.769.602-.319 1.52-.505 2.534-.505 1.166 0 2.304.242 3.07.646-.664.402-1.597.628-2.621.628z"/><path d="M36.07 58.051c1.892 0 3.837-.845 4.627-2.01l.163-.24-.276-.093a4.675 4.675 0 0 0-1.438-.205c-1.924 0-4.073.841-4.894 1.908l-.176.229.268.109c.498.201 1.079.302 1.726.302zm3.076-2.106c.364 0 .697.031.995.098-.808.91-2.484 1.57-4.071 1.57-.456 0-.886-.057-1.261-.162.861-.849 2.711-1.506 4.337-1.506zm-8.335.912c1.602 0 3.125-.516 3.974-1.348l.217-.209-.272-.14c-.676-.346-1.639-.537-2.708-.537-1.701 0-3.304.473-4.085 1.195l-.212.199.248.151c.738.441 1.746.689 2.838.689zm1.212-1.798c.849 0 1.617.125 2.208.355-.803.626-2.077 1.006-3.42 1.006-.878 0-1.692-.169-2.329-.479.767-.535 2.135-.882 3.541-.882zm-9.415-8.211c.28 1.582 2.255 3.193 3.912 3.193.06 0 .119-.002.177-.006l.275-.021-.082-.266c-.484-1.555-2.112-3.162-3.997-3.162l-.33.008.045.254zm3.76 2.752c-1.323-.091-2.873-1.32-3.263-2.563 1.46.108 2.757 1.335 3.263 2.563zm25.898 2.28l.073.296.253-.164c1.745-1.121 2.896-3.627 2.672-5.828l-.031-.332-.291.16c-1.848 1.006-3.176 3.912-2.676 5.868zm2.588-5.302c.068 2.047-1.026 3.943-2.228 4.873-.222-1.638.812-3.888 2.228-4.873zM42.02 55.957l-.053.313.313-.063c2.015-.409 4.102-2.616 4.379-4.632l.04-.298-.296.054c-1.995.345-4.046 2.507-4.383 4.626zm.5-.264c.435-1.705 2.047-3.414 3.645-3.857-.392 1.648-2.003 3.357-3.645 3.857zm8.262-6.434l-.024-.319-.29.143c-1.757.861-3.11 3.51-2.784 5.453l.051.313.273-.162c1.54-.893 2.986-3.042 2.774-5.428zm-.419.382c.035 1.916-1.055 3.623-2.286 4.481-.089-1.595.95-3.627 2.286-4.481zm6.01 1.866c-1.425 0-2.77.332-3.598.89l-.25.168.24.187c.741.574 1.895.903 3.164.903 1.385 0 2.663-.381 3.512-1.045l.229-.178-.233-.17c-.66-.483-1.775-.755-3.064-.755zm-.447 1.712c-1.023 0-1.958-.226-2.621-.628.766-.401 1.902-.646 3.068-.646 1.016 0 1.934.186 2.535.505-.763.486-1.851.769-2.982.769z"/><path d="M42.328 55.708l-.276.093.161.24c.792 1.165 2.736 2.01 4.629 2.01.646 0 1.227-.101 1.727-.3l.269-.106-.176-.229c-.821-1.069-2.97-1.905-4.896-1.905a4.61 4.61 0 0 0-1.438.197zm4.514 1.905c-1.587 0-3.264-.66-4.07-1.57.297-.064.631-.098.994-.098 1.623 0 3.478.654 4.338 1.502a4.53 4.53 0 0 1-1.262.166zm8.346-1.599l-.213-.197c-.781-.728-2.385-1.195-4.086-1.195-1.068 0-2.029.191-2.707.54l-.271.138.216.212c.85.832 2.373 1.346 3.975 1.346 1.092 0 2.1-.248 2.838-.696l.248-.148zm-3.086.408c-1.343 0-2.617-.381-3.42-1.008.59-.23 1.358-.354 2.207-.354 1.407 0 2.774.346 3.543.883-.638.308-1.453.479-2.33.479zm3.919-6.67l-.08.264.274.021c.062.004.117.006.177.006 1.656 0 3.631-1.61 3.912-3.192l.043-.25-.328-.01c-1.885-.002-3.511 1.606-3.998 3.161zm.523-.152c.505-1.228 1.804-2.455 3.263-2.563-.392 1.242-1.941 2.473-3.263 2.563zM32.827 66.566l-1.309 5.451a6.947 6.947 0 0 0-.139.834h-.017c-.013 0-.025-.379-.146-.836l-1.387-5.453-1.243-.004-1.436 5.445c-.124.453-.137.836-.137.836h-.031s-.034-.39-.133-.836l-.916-4.084-.709 2.977.875 3.539 1.656.002 1.223-4.662c.135-.508.204-1.026.204-1.026h.023s.063.521.197 1.028l1.2 4.67 1.656.006 2.051-7.881-1.482-.006zm7.585 5.475c-.104.447-.137.834-.137.834h-.024s-.018-.383-.139-.834l-1.384-5.456-1.243-.003-1.437 5.449c-.126.453-.137.832-.137.832h-.03s-.039-.387-.135-.832l-.923-4.104-.707 2.977.882 3.557 1.656.004 1.221-4.66a8.943 8.943 0 0 0 .201-1.027h.024s.065.525.195 1.029l1.205 4.67 1.649.004 2.057-7.875-1.481-.002-1.313 5.437zm6.447-5.434l-2.797 7.877 1.475.004.672-2.02 2.77.01.658 2.021 1.477.004-2.756-7.891-1.499-.005zm-.298 4.696l.701-2.107c.153-.441.34-1.217.34-1.217h.021s.164.772.312 1.219l.694 2.113-2.068-.008zm10.766-.108v-.025c.834-.333 1.339-1.208 1.341-2.15.005-1.041-.491-1.805-1.283-2.158-.34-.158-.729-.225-1.587-.229l-2.541-.007h-.004l-.021 7.886 1.432.004.007-2.94 1.388.005 1.555 2.943 1.599.004-1.614-2.943c-.161-.28-.272-.39-.272-.39zm-1.36-.863l-1.294-.004.013-2.469 1.092.004c1.119.006 1.44.473 1.436 1.228-.004.788-.48 1.243-1.247 1.241zm8.394-3.676l-2.688-.008-.023 7.879 2.692.012c2.433.007 4.019-1.454 4.031-3.943 0-2.487-1.578-3.931-4.012-3.94zm-.093 6.655l-1.18-.006.014-5.42 1.183.004c1.569.008 2.616.95 2.608 2.707-.002 1.779-1.027 2.717-2.625 2.715zm7.505-4.5c0-.558.526-.94 1.191-.94.985.001 1.738.69 1.738.69l.627-1.162s-.798-.846-2.35-.852c-1.508-.001-2.643.971-2.647 2.281-.013 2.42 3.713 2.184 3.711 3.597 0 .644-.546.955-1.146.951-1.113-.003-1.963-.837-1.963-.837l-.781 1.072s.962 1.076 2.717 1.084c1.639.006 2.595-1.051 2.6-2.305.01-2.515-3.697-2.182-3.697-3.579zm-61.534-2.307l-2.798 7.875 1.477.008.675-2.021 2.764.01.659 2.021 1.479.006-2.755-7.896-1.501-.003zm-.299 4.697l.702-2.105c.159-.445.34-1.224.34-1.224h.022s.162.78.306 1.228l.699 2.107-2.069-.006zm13.996-4.656l-1.316 5.451c-.104.439-.134.832-.134.832h-.021c-.016 0-.02-.381-.146-.832l-1.38-5.458-1.248-.003-1.437 5.451c-.121.451-.135.83-.135.83h-.034s-.032-.387-.132-.832l-1.226-5.459-1.479-.004 1.955 7.892 1.651.004 1.226-4.66a9.557 9.557 0 0 0 .204-1.032h.022s.07.524.197 1.035l1.2 4.662 1.656.008 2.053-7.877-1.476-.008zm9.252-51.999c-1.12 0-1.984-.84-1.984-.84l-.786 1.087s.977 1.088 2.748 1.088c1.66 0 2.624-1.066 2.624-2.333 0-2.545-3.744-2.199-3.744-3.611 0-.561.526-.952 1.2-.952.998 0 1.76.695 1.76.695l.628-1.177s-.808-.853-2.378-.853c-1.525 0-2.669.987-2.669 2.31 0 2.445 3.756 2.198 3.756 3.623.001.65-.549.963-1.155.963zm4.048-6.761h1.445v7.962h-1.445zm5.112 7.962h1.448V9.03h2.611V7.785h-6.671V9.03h2.612zm10.056-1.246h-3.496V12.36h2.679v-1.245h-2.679V9.03h3.319V7.785H47.46v7.962h4.944zm-34.688 9.95c0-.471-.078-1.233-.078-1.233h.023s.358.773.662 1.233l3.017 4.586h1.436v-7.962H21.34v4.598c0 .471.078 1.233.078 1.233h-.023s-.359-.773-.661-1.233l-3.016-4.598h-1.446v7.962h1.446l-.002-4.586zm10.64 4.721c2.344 0 4.115-1.828 4.115-4.171 0-2.277-1.771-4.06-4.115-4.06-2.345 0-4.116 1.783-4.116 4.06.001 2.343 1.772 4.171 4.116 4.171zm0-6.908c1.458 0 2.624 1.167 2.624 2.737 0 1.636-1.165 2.849-2.624 2.849-1.458 0-2.624-1.212-2.624-2.849 0-1.569 1.167-2.737 2.624-2.737zm5.337 6.774h1.445l.337-4.451c.033-.527.011-1.245.011-1.245h.023s.248.785.438 1.245l1.279 3.083h1.266l1.29-3.083a17.7 17.7 0 0 0 .426-1.234h.023s-.023.707.012 1.234l.337 4.451h1.438l-.64-7.962h-1.547l-1.559 3.936c-.179.471-.392 1.165-.392 1.165h-.023s-.225-.695-.404-1.165l-1.559-3.936h-1.548l-.653 7.962zm10.091-7.962h1.444v7.962h-1.444zm4.909 3.375c0-.471-.077-1.233-.077-1.233h.022s.358.773.661 1.233l3.017 4.586h1.437v-7.962h-1.437v4.598c0 .471.078 1.233.078 1.233h-.023s-.357-.773-.661-1.233l-3.017-4.598h-1.444v7.962h1.444v-4.586zm8.523 1.2h2.68v-1.245h-2.68v-2.085h3.317v-1.245h-4.765v7.962h4.945v-1.246h-3.497zm9.944 2.141h-3.499v-2.141h2.682v-1.245h-2.682v-2.085h3.319v-1.245h-4.764v7.962h4.944z"/></g></svg>