<svg xmlns="http://www.w3.org/2000/svg" width="100" height="100" viewBox="-38 -38 100 100"><path fill="#353333" d="M33.934-38L-9.934-7.259v38.523L33.934 62V23.521l-16.437-11.52L33.934.484z"/><path opacity=".3" fill="#0C0C0B" d="M-9.934 31.225v.039l8.384 5.875 19.098-25.103-.051-.035z"/><path fill="#478AC9" d="M22.284 27.367c0 1.483-1.046 2.501-2.566 2.501-1.527 0-2.575-1.018-2.575-2.501 0-1.492 1.046-2.501 2.575-2.501 1.518 0 2.566 1.009 2.566 2.501zm-4.076.009c0 .953.62 1.601 1.508 1.601.881 0 1.501-.648 1.501-1.601 0-.944-.62-1.592-1.501-1.592-.887-.002-1.508.646-1.508 1.592z"/><path fill="#F8D515" d="M26.026 24.903h1.167l-1.583 2.398 1.694 2.528h-1.222l-1.176-1.806-1.26 1.806h-1.185l1.741-2.528-1.62-2.398h1.222l1.102 1.685 1.12-1.685z"/><path fill="#D32028" d="M27.304 30.862H15.782v-6.356c0-.462.307-.667.667-.667.223 0 .472.084.676.232l.407-.816a1.874 1.874 0 0 0-1.111-.342c-.853 0-1.694.546-1.694 1.694v6.254h-1.278v.797h1.278v1.278h1.055v-1.278h11.522v-.796zm.574-6.735a.017.017 0 0 1 .012.016l.049.274c.002.016.023.023.035.009l.188-.207a.026.026 0 0 1 .019-.007l.277.037c.016.002.03-.016.021-.03l-.137-.242c-.002-.007-.005-.014 0-.019l.121-.251c.007-.016-.007-.033-.023-.03l-.272.056a.019.019 0 0 1-.019-.005l-.202-.193a.02.02 0 0 0-.035.012l-.03.277a.017.017 0 0 1-.012.016l-.246.132c-.016.009-.014.03.002.037l.252.118z"/><path fill="#FFF" d="M-2.228-5.198v1.683H.424v.874h-2.652v23.225h-.983V-6.081h4.659l-.007.883h-3.669zM4.181-.79c-.316.39-.825.583-1.466.583-.957 0-1.557-.593-1.557-1.376 0-.809.609-1.325 1.676-1.334h1.343v-.13c0-.56-.358-.892-1.06-.892-.425 0-.867.149-1.308.449l-.39-.667c.616-.367 1.067-.558 1.908-.558 1.143 0 1.785.583 1.792 1.557L5.127-.25h-.941v-.54h-.005zm-.007-1.015v-.409H2.973c-.625 0-.918.167-.918.59 0 .4.325.658.86.658.683.002 1.208-.356 1.259-.839zM7.291-.248L5.573-4.682h1.002l1.232 3.491 1.218-3.491h.957L8.283-.248h-.992zm7.401-2.215c0 1.334-.941 2.25-2.308 2.25-1.376 0-2.317-.916-2.317-2.25 0-1.343.941-2.25 2.317-2.25 1.365-.002 2.308.907 2.308 2.25zm-3.667.007c0 .858.558 1.441 1.357 1.441.79 0 1.35-.583 1.35-1.441 0-.851-.558-1.434-1.35-1.434-.799 0-1.357.584-1.357 1.434zm5.626-1.341c.3-.6.832-.918 1.534-.918v.918c-.892-.051-1.457.474-1.534 1.232V7.37h-.96V-4.68h.96v.883zm3.358-2.149c0 .335-.242.576-.558.576s-.558-.242-.558-.576c0-.342.242-.583.558-.583s.558.241.558.583zM18.975 5.118V-4.68h.95v9.798h-.95zm4.878-5.65c-.351.209-.718.325-1.092.325-.667 0-1.243-.383-1.243-1.292v-2.298h-.625v-.718h.625v-18.944h.95v18.944h1.308v.718h-1.308v2.124c0 .458.174.6.474.6.2 0 .409-.067.667-.193l.244.734zm4.732-1.566h-3.349c.149.683.676 1.109 1.376 1.109.483 0 .925-.184 1.25-.516l.509.541c-.435.476-1.067.751-1.834.751-1.366 0-2.268-.909-2.268-2.24 0-1.341.925-2.25 2.24-2.259 1.56-.003 2.194 1.015 2.076 2.614zm-.832-.699c-.035-.718-.509-1.15-1.234-1.15-.699 0-1.192.442-1.301 1.15h2.535z"/><path fill="#D32028" d="M5.334 37.876h-.393v-.772l-.878-1.587h.4l.674 1.148.66-1.148h.404l-.867 1.573v.786zm2.679-.897c0 .539-.381.911-.934.911-.555 0-.937-.369-.937-.911 0-.541.381-.911.937-.911.553 0 .934.369.934.911zm-1.482.004c0 .346.225.581.548.581.321 0 .546-.235.546-.581 0-.344-.225-.581-.546-.581-.323 0-.548.237-.548.581zm3.513.893h-.388v-.349c-.121.246-.346.358-.639.363-.411 0-.658-.263-.658-.69v-1.115h.388v1.009c0 .27.158.437.418.437.311-.007.493-.246.493-.56v-.883h.388v1.789h-.002zm2.436-2.359c.709 0 1.22.495 1.22 1.178 0 .681-.516 1.181-1.229 1.181h-.957v-2.359h.966zm-.569 2.003h.581c.458 0 .809-.339.809-.82a.804.804 0 0 0-.825-.825h-.562v1.645h-.003zm3.769-.393h-1.355c.06.277.274.449.555.449a.691.691 0 0 0 .504-.209l.207.218a.976.976 0 0 1-.741.304c-.551 0-.916-.367-.916-.906 0-.541.374-.911.906-.916.631.001.886.412.84 1.06zm-.337-.283c-.014-.29-.204-.465-.5-.465-.284 0-.481.179-.525.465h1.025zm1.906-.595l-.142.286a1.052 1.052 0 0 0-.516-.158c-.151 0-.263.051-.263.179 0 .332.953.151.95.802 0 .367-.328.532-.686.532-.263 0-.541-.088-.723-.249l.139-.277a.974.974 0 0 0 .6.223c.165 0 .293-.056.293-.191 0-.367-.944-.163-.939-.811 0-.363.316-.518.66-.518.225.001.464.068.627.182zm1.998.878h-1.355c.06.277.274.449.555.449a.691.691 0 0 0 .504-.209l.207.218a.976.976 0 0 1-.741.304c-.551 0-.916-.367-.916-.906 0-.541.374-.911.906-.916.631.001.887.412.84 1.06zm-.337-.283c-.014-.29-.204-.465-.5-.465-.284 0-.481.179-.525.465h1.025zm1.13-.402a.654.654 0 0 1 .62-.372v.372c-.36-.021-.59.191-.62.497v.937h-.388v-1.792h.388v.358zm1.44 1.434l-.695-1.792h.404l.5 1.411.49-1.411h.388l-.686 1.792h-.401zm2.868-.749h-1.355c.06.277.274.449.555.449a.691.691 0 0 0 .504-.209l.207.218a.976.976 0 0 1-.741.304c-.551 0-.916-.367-.916-.906 0-.541.374-.911.906-.916.631.001.887.412.84 1.06zm-.337-.283c-.014-.29-.204-.465-.5-.465-.284 0-.481.179-.525.465h1.025zm1.636 1.032v-2.359h.397v2.359h-.397zm2.008-.114a.864.864 0 0 1-.442.13c-.27 0-.502-.153-.502-.523v-.927h-.253v-.29h.253v-.493h.383v.493h.53v.29h-.53v.858c0 .186.07.242.193.242a.65.65 0 0 0 .27-.077l.098.297zm.688-.082c0 .132-.091.225-.211.225s-.211-.093-.211-.225c0-.128.091-.221.211-.221s.211.094.211.221zm-.091-.555h-.246l-.06-.997v-.581h.367v.581l-.061.997z"/></svg>