<?xml version="1.0" encoding="utf-8"?>
<!-- Generator: Adobe Illustrator 17.0.0, SVG Export Plug-In . SVG Version: 6.00 Build 0)  -->
<!DOCTYPE svg PUBLIC "-//W3C//DTD SVG 1.1//EN" "http://www.w3.org/Graphics/SVG/1.1/DTD/svg11.dtd">
<svg version="1.1" id="cssfox-favorite-fox-badge-dark-right"
	 xmlns="http://www.w3.org/2000/svg" xmlns:xlink="http://www.w3.org/1999/xlink" x="0px" y="0px" width="100px" height="100px"
	 viewBox="-38 -38 100 100" enable-background="new -38 -38 100 100" xml:space="preserve">
<g>
	<polygon fill="#353333" points="33.934,-38 -9.934,-7.259 -9.934,-7.22 -9.934,31.225 -9.934,31.264 33.934,62 33.934,23.521 
		17.497,12.001 33.934,0.484 	"/>
	<polygon opacity="0.3" fill="#0C0C0B" enable-background="new    " points="-9.934,31.225 -9.934,31.264 -1.55,37.139 
		17.548,12.036 17.497,12.001 	"/>
	<path fill="#478AC9" d="M22.284,27.367c0,1.483-1.046,2.501-2.566,2.501c-1.527,0-2.575-1.018-2.575-2.501
		c0-1.492,1.046-2.501,2.575-2.501C21.236,24.866,22.284,25.875,22.284,27.367z M18.208,27.376c0,0.953,0.62,1.601,1.508,1.601
		c0.881,0,1.501-0.648,1.501-1.601c0-0.944-0.62-1.592-1.501-1.592C18.829,25.782,18.208,26.43,18.208,27.376z"/>
	<path fill="#F8D515" d="M26.026,24.903h1.167l-1.583,2.398l1.694,2.528h-1.222l-1.176-1.806l-1.26,1.806h-1.185l1.741-2.528
		l-1.62-2.398h1.222l1.102,1.685L26.026,24.903z"/>
	<path fill="#D32028" d="M27.304,30.862H15.782v-6.356c0-0.462,0.307-0.667,0.667-0.667c0.223,0,0.472,0.084,0.676,0.232
		l0.407-0.816c-0.314-0.232-0.713-0.342-1.111-0.342c-0.853,0-1.694,0.546-1.694,1.694v6.254h-1.278v0.797h1.278v1.278h1.055v-1.278
		h11.522C27.304,31.659,27.304,30.862,27.304,30.862z"/>
	<path fill="#FFFFFF" stroke="#231F20" stroke-width="0.25" stroke-miterlimit="10" d="M13.407,28.266"/>
	<path fill="#D32028" d="M27.878,24.127c0.007,0.002,0.012,0.009,0.012,0.016l0.049,0.274c0.002,0.016,0.023,0.023,0.035,0.009
		l0.188-0.207c0.005-0.005,0.012-0.007,0.019-0.007l0.277,0.037c0.016,0.002,0.03-0.016,0.021-0.03l-0.137-0.242
		c-0.002-0.007-0.005-0.014,0-0.019l0.121-0.251c0.007-0.016-0.007-0.033-0.023-0.03l-0.272,0.056c-0.007,0.002-0.014,0-0.019-0.005
		l-0.202-0.193c-0.012-0.012-0.033-0.005-0.035,0.012l-0.03,0.277c0,0.007-0.005,0.014-0.012,0.016l-0.246,0.132
		c-0.016,0.009-0.014,0.03,0.002,0.037L27.878,24.127z"/>
	<path fill="#FFFFFF" d="M-2.228-5.198v1.683h2.652v0.874h-2.652v23.225h-0.983V-6.081h4.659L1.441-5.198H-2.228z"/>
	<path fill="#FFFFFF" d="M4.181-0.79c-0.316,0.39-0.825,0.583-1.466,0.583c-0.957,0-1.557-0.593-1.557-1.376
		c0-0.809,0.609-1.325,1.676-1.334h1.343v-0.13c0-0.56-0.358-0.892-1.06-0.892c-0.425,0-0.867,0.149-1.308,0.449l-0.39-0.667
		c0.616-0.367,1.067-0.558,1.908-0.558c1.143,0,1.785,0.583,1.792,1.557L5.127-0.25H4.186V-0.79H4.181z M4.174-1.805v-0.409H2.973
		c-0.625,0-0.918,0.167-0.918,0.59c0,0.4,0.325,0.658,0.86,0.658C3.598-0.964,4.123-1.322,4.174-1.805z"/>
	<path fill="#FFFFFF" d="M7.291-0.248L5.573-4.682h1.002l1.232,3.491l1.218-3.491h0.957L8.283-0.248H7.291z"/>
	<path fill="#FFFFFF" d="M14.692-2.463c0,1.334-0.941,2.25-2.308,2.25c-1.376,0-2.317-0.916-2.317-2.25
		c0-1.343,0.941-2.25,2.317-2.25C13.749-4.715,14.692-3.806,14.692-2.463z M11.025-2.456c0,0.858,0.558,1.441,1.357,1.441
		c0.79,0,1.35-0.583,1.35-1.441c0-0.851-0.558-1.434-1.35-1.434C11.583-3.89,11.025-3.306,11.025-2.456z"/>
	<path fill="#FFFFFF" d="M16.651-3.797c0.3-0.6,0.832-0.918,1.534-0.918v0.918c-0.892-0.051-1.457,0.474-1.534,1.232V7.37h-0.96
		V-4.68h0.96V-3.797z"/>
	<path fill="#FFFFFF" d="M20.009-5.946c0,0.335-0.242,0.576-0.558,0.576s-0.558-0.242-0.558-0.576c0-0.342,0.242-0.583,0.558-0.583
		S20.009-6.288,20.009-5.946z M18.975,5.118V-4.68h0.95v9.798H18.975z"/>
	<path fill="#FFFFFF" d="M23.853-0.532c-0.351,0.209-0.718,0.325-1.092,0.325c-0.667,0-1.243-0.383-1.243-1.292v-2.298h-0.625
		v-0.718h0.625v-18.944h0.95v18.944h1.308v0.718h-1.308v2.124c0,0.458,0.174,0.6,0.474,0.6c0.2,0,0.409-0.067,0.667-0.193
		L23.853-0.532z"/>
	<path fill="#FFFFFF" d="M28.585-2.098h-3.349c0.149,0.683,0.676,1.109,1.376,1.109c0.483,0,0.925-0.184,1.25-0.516l0.509,0.541
		c-0.435,0.476-1.067,0.751-1.834,0.751c-1.366,0-2.268-0.909-2.268-2.24c0-1.341,0.925-2.25,2.24-2.259
		C28.069-4.715,28.703-3.697,28.585-2.098z M27.753-2.797c-0.035-0.718-0.509-1.15-1.234-1.15c-0.699,0-1.192,0.442-1.301,1.15
		H27.753z"/>
	<path fill="#D32028" d="M5.334,37.876H4.941v-0.772l-0.878-1.587h0.4l0.674,1.148l0.66-1.148h0.404L5.334,37.09V37.876z"/>
	<path fill="#D32028" d="M8.013,36.979c0,0.539-0.381,0.911-0.934,0.911c-0.555,0-0.937-0.369-0.937-0.911
		c0-0.541,0.381-0.911,0.937-0.911C7.632,36.068,8.013,36.437,8.013,36.979z M6.531,36.983c0,0.346,0.225,0.581,0.548,0.581
		c0.321,0,0.546-0.235,0.546-0.581c0-0.344-0.225-0.581-0.546-0.581C6.756,36.402,6.531,36.639,6.531,36.983z"/>
	<path fill="#D32028" d="M10.044,37.876H9.656v-0.349c-0.121,0.246-0.346,0.358-0.639,0.363c-0.411,0-0.658-0.263-0.658-0.69v-1.115
		h0.388v1.009c0,0.27,0.158,0.437,0.418,0.437c0.311-0.007,0.493-0.246,0.493-0.56v-0.883h0.388v1.789H10.044z"/>
	<path fill="#D32028" d="M12.48,35.517c0.709,0,1.22,0.495,1.22,1.178c0,0.681-0.516,1.181-1.229,1.181h-0.957v-2.359
		C11.513,35.517,12.48,35.517,12.48,35.517z M11.911,37.52h0.581c0.458,0,0.809-0.339,0.809-0.82c0-0.481-0.36-0.825-0.825-0.825
		h-0.562v1.645H11.911z"/>
	<path fill="#D32028" d="M15.68,37.127h-1.355c0.06,0.277,0.274,0.449,0.555,0.449c0.195,0,0.374-0.074,0.504-0.209l0.207,0.218
		c-0.177,0.193-0.432,0.304-0.741,0.304c-0.551,0-0.916-0.367-0.916-0.906c0-0.541,0.374-0.911,0.906-0.916
		C15.471,36.068,15.726,36.479,15.68,37.127z M15.343,36.844c-0.014-0.29-0.204-0.465-0.5-0.465c-0.284,0-0.481,0.179-0.525,0.465
		H15.343z"/>
	<path fill="#D32028" d="M17.249,36.249l-0.142,0.286c-0.158-0.098-0.358-0.158-0.516-0.158c-0.151,0-0.263,0.051-0.263,0.179
		c0,0.332,0.953,0.151,0.95,0.802c0,0.367-0.328,0.532-0.686,0.532c-0.263,0-0.541-0.088-0.723-0.249l0.139-0.277
		c0.156,0.139,0.404,0.223,0.6,0.223c0.165,0,0.293-0.056,0.293-0.191c0-0.367-0.944-0.163-0.939-0.811
		c0-0.363,0.316-0.518,0.66-0.518C16.847,36.068,17.086,36.135,17.249,36.249z"/>
	<path fill="#D32028" d="M19.247,37.127h-1.355c0.06,0.277,0.274,0.449,0.555,0.449c0.195,0,0.374-0.074,0.504-0.209l0.207,0.218
		c-0.177,0.193-0.432,0.304-0.741,0.304c-0.551,0-0.916-0.367-0.916-0.906c0-0.541,0.374-0.911,0.906-0.916
		C19.038,36.068,19.294,36.479,19.247,37.127z M18.91,36.844c-0.014-0.29-0.204-0.465-0.5-0.465c-0.284,0-0.481,0.179-0.525,0.465
		H18.91z"/>
	<path fill="#D32028" d="M20.04,36.442c0.121-0.242,0.337-0.372,0.62-0.372v0.372c-0.36-0.021-0.59,0.191-0.62,0.497v0.937h-0.388
		v-1.792h0.388V36.442z"/>
	<path fill="#D32028" d="M21.48,37.876l-0.695-1.792h0.404l0.5,1.411l0.49-1.411h0.388l-0.686,1.792H21.48z"/>
	<path fill="#D32028" d="M24.348,37.127h-1.355c0.06,0.277,0.274,0.449,0.555,0.449c0.195,0,0.374-0.074,0.504-0.209l0.207,0.218
		c-0.177,0.193-0.432,0.304-0.741,0.304c-0.551,0-0.916-0.367-0.916-0.906c0-0.541,0.374-0.911,0.906-0.916
		C24.139,36.068,24.395,36.479,24.348,37.127z M24.011,36.844c-0.014-0.29-0.204-0.465-0.5-0.465c-0.284,0-0.481,0.179-0.525,0.465
		H24.011z"/>
	<path fill="#D32028" d="M25.647,37.876v-2.359h0.397v2.359H25.647z"/>
	<path fill="#D32028" d="M27.655,37.762c-0.142,0.084-0.29,0.13-0.442,0.13c-0.27,0-0.502-0.153-0.502-0.523v-0.927h-0.253v-0.29
		h0.253v-0.493h0.383v0.493h0.53v0.29h-0.53v0.858c0,0.186,0.07,0.242,0.193,0.242c0.081,0,0.165-0.028,0.27-0.077L27.655,37.762z"
		/>
	<path fill="#D32028" d="M28.343,37.68c0,0.132-0.091,0.225-0.211,0.225s-0.211-0.093-0.211-0.225c0-0.128,0.091-0.221,0.211-0.221
		S28.343,37.553,28.343,37.68z M28.252,37.125h-0.246l-0.06-0.997v-0.581h0.367v0.581L28.252,37.125z"/>
</g>
</svg>
