<svg xmlns="http://www.w3.org/2000/svg" width="95" height="68"><g fill="#1D1B1A"><path d="M38.213 40.698c-1.685 0-3.089 1.404-3.089 3.149s1.404 3.149 3.089 3.149c1.645 0 3.049-1.404 3.049-3.149s-1.404-3.149-3.049-3.149zm-10.674 0c-1.653 0-2.87 1.344-2.87 3.149s1.217 3.149 2.87 3.149 2.87-1.344 2.87-3.149-1.216-3.149-2.87-3.149z"/><path d="M36.442 4.733C22.56 4.733 7.5 19.508 7.5 33.39v21.832h51.84c13.884 0 28.16-14.631 28.16-28.515V4.733H36.442zM21.194 48.701h-2.086v-1.182h-.041c-.662.882-1.865 1.448-3.189 1.448-3.189 0-5.034-2.611-5.034-5.119 0-2.387 1.986-5.115 5.135-5.115 1.444 0 2.547.621 3.089 1.444h.04v-.197l2.086-.987v9.708zm6.516.265c-1.293 0-2.528-.645-3.004-1.448h-.038v.274l-1.976.908V35.82h1.976v4.356h.038c.475-.802 1.711-1.444 3.004-1.444 2.395 0 4.791 1.866 4.791 5.115-.001 3.25-2.397 5.119-4.791 5.119zm15.558-.265h-2.086v-1.182h-.04c-.662.882-1.865 1.448-3.189 1.448-3.189 0-5.035-2.611-5.035-5.119 0-2.387 1.986-5.115 5.135-5.115 1.444 0 2.547.621 3.089 1.444h.04v-.197l2.086-.987v9.708zm5.893.253c-3.332-.189-4.943-2.639-4.94-5.107.003-2.486 1.845-5.079 5.042-5.132 2.07-.034 3.543 1.308 4.303 2.607l-1.801.865c-.582-.781-1.189-1.482-2.442-1.479-1.697.004-2.895 1.477-2.895 3.14 0 1.581 1.087 2.883 2.649 3.113 1.397.204 2.259-.723 2.954-1.816l1.728 1.01c-1.026 1.622-2.576 2.913-4.598 2.799zm14.269-4.345c0 2.728-2.126 4.356-4.433 4.356s-4.433-1.628-4.433-4.356v-4.596l2.086-1.02v5.436c0 1.424 1.043 2.447 2.347 2.447s2.347-1.023 2.347-2.447v-5.436h2.086v5.616zm4.948 4.357c-1.645 0-3.364-1.157-4.314-2.359l1.345-1.366c.546.96 1.986 1.996 3.069 1.996 1.203 0 1.926-.681 1.926-1.223 0-.642-.501-.983-1.263-1.123l-1.183-.221c-2.727-.507-3.234-1.364-3.234-2.748 0-1.645 1.207-3.11 3.634-3.11 1.344 0 2.449.322 3.773 1.265l-1.183 1.464c-1.024-.862-1.847-1.004-2.529-1.004-.902 0-1.765.402-1.765 1.184 0 .581.365.831 1.165.983l2.106.401c1.725.321 2.568 1.144 2.568 2.588-.003 1.424-1.167 3.273-4.115 3.273z"/><path d="M16.139 40.698c-1.685 0-3.089 1.404-3.089 3.149s1.404 3.149 3.089 3.149c1.645 0 3.049-1.404 3.049-3.149s-1.404-3.149-3.049-3.149z"/></g></svg>