<svg xmlns="http://www.w3.org/2000/svg" width="95" height="68"><path fill="#1D1B1A" d="M47.5 53.268c.449 0 .817.366.817.817a.818.818 0 1 1-.817-.817m.002 1.509c.375 0 .657-.304.657-.692 0-.39-.282-.695-.657-.695-.381 0-.662.304-.662.695 0 .388.281.692.662.692m-.316-1.172h.368c.22 0 .328.09.328.27 0 .154-.099.263-.248.263l.271.423h-.164l-.269-.423h-.128v.423h-.159l.001-.956zm.159.412h.183c.123 0 .197-.025.197-.15 0-.106-.097-.139-.197-.139h-.183v.289z"/><path fill="#1D1B1A" d="M42.873 48.675l-1.113 5.19a4.829 4.829 0 0 0-1.028-.099c-3.85 0-6.594 3.124-6.594 6.633 0 2.158 1.329 3.508 3.349 3.508 1.209 0 2.237-.483 2.803-1.148.177.705.864 1.068 1.673 1.068h.357l3.24-15.151-2.687-.001zM40.53 59.673c-.16.726-.401 1.351-.767 1.774-.362.404-.807.642-1.453.642-.906 0-1.472-.62-1.472-1.772 0-2.336 1.695-4.858 3.75-4.858.302 0 .665.06.807.141l-.865 4.073zm-7.256-9.882c-.927 0-1.833.849-1.833 1.796 0 .705.506 1.19 1.188 1.19.929 0 1.854-.847 1.854-1.794 0-.705-.521-1.192-1.209-1.192m-8.916 11.377c-.1.439-.695 2.739 1.715 2.739h.364l2.817-13.44h-2.666l-2.23 10.701zm5.186 0c-.101.439-.696 2.739 1.713 2.739h.361l2.119-9.958h-2.661l-1.532 7.219zm-9.638-7.402c-1.412 0-2.661.463-3.607 1.251-1.493 1.21-2.361 3.204-2.361 5.322 0 2.359 1.613 3.569 3.852 3.569 1.41 0 2.663-.464 3.606-1.251 1.492-1.209 2.361-3.225 2.361-5.343-.001-2.358-1.614-3.548-3.851-3.548m-.104 7.418c-.442.565-1.005.949-1.67.949-1.069 0-1.491-.746-1.491-1.795 0-1.128.423-2.804 1.249-3.85.445-.566 1.029-.95 1.695-.95 1.07 0 1.469.747 1.469 1.795-.001 1.13-.423 2.805-1.252 3.851m31.506-7.418c-3.666 0-6.592 2.964-6.592 6.653 0 2.158 1.231 3.488 3.246 3.488 1.211 0 2.236-.483 2.803-1.148.181.705.88 1.068 1.684 1.068h.355l1.946-9.091a6.562 6.562 0 0 0-3.442-.97m-.299 5.907c-.162.726-.382 1.351-.747 1.774-.363.404-.828.642-1.473.642-.907 0-1.368-.602-1.368-1.751 0-2.058 1.49-4.878 3.828-4.878.242 0 .465.06.622.161l-.862 4.052zm40.161-5.987c-1.28 0-2.373.577-3.068 1.351l-.244-1.171h-2.032c0 .828-.132 1.98-.499 3.702l-1.276 6.077h2.663l.947-4.414c.26-1.232.714-3.569 2.58-3.569.926 0 1.406.588 1.115 1.991l-.711 3.432c-.101.443-.708 2.742 1.714 2.742h.359l1.334-6.274c.578-2.689-.856-3.867-2.882-3.867m0 0c-1.28 0-2.373.577-3.068 1.351l-.244-1.171h-2.032c0 .828-.132 1.98-.499 3.702l-1.276 6.077h2.663l.947-4.414c.26-1.232.714-3.569 2.58-3.569.926 0 1.406.588 1.115 1.991l-.711 3.432c-.101.443-.708 2.742 1.714 2.742h.359l1.334-6.274c.578-2.689-.856-3.867-2.882-3.867m-28.841 4.676c-.264 1.232-.698 3.57-2.583 3.57-1.683 0-1.145-1.856-1.046-2.338l1.19-5.645h-2.66l-1.192 5.563c-.122.585-.242 1.19-.242 1.694 0 .726.26 1.309.664 1.753-1.551.384-2.278 1.19-2.278 2.339 0 1.695 1.677 2.703 3.911 2.703 1.919 0 3.43-.646 4.399-1.735.784-.887 1.267-2.098 1.632-3.81l1.814-8.508h-2.661l-.948 4.414zm-1.189 5.343c-.204.787-.567 1.493-1.09 1.997-.504.484-1.19.745-1.936.745-.926 0-1.695-.445-1.695-1.231 0-1.005.99-1.248 2.44-1.41 1.031-.119 1.935-.363 2.461-.825l-.18.724zm19.228-10.019c-1.28 0-2.37.577-3.07 1.351l-.242-1.171h-2.035c0 .828-.128 1.98-.497 3.702l-1.276 6.077h2.662l.95-4.414c.263-1.232.715-3.569 2.578-3.569.929 0 1.41.588 1.12 1.991l-.716 3.432c-.1.443-.71 2.742 1.714 2.742h.359l1.336-6.274c.576-2.689-.857-3.867-2.883-3.867m-8.86-5.459L68.81 61.163c-.104.445-.697 2.744 1.714 2.744h.364l3.282-15.679h-2.662zm-59.273-.075l-1.197 5.736-.002.014c-2.016.383-3.531.738-4.986 1.148l.245-1.162 1.2-5.736h-2.66l-1.668 7.99a21.43 21.43 0 0 0-1.251.596c-.715.37-.973.929-1.057 1.197-.052.184-.064.518.03.781a73.257 73.257 0 0 1 1.893-.725l-.646 3.098c-.1.443-.696 2.743 1.714 2.743h.366l1.378-6.595c1.49-.404 3.007-.751 4.983-1.131l-.026.12-1.014 4.863c-.099.443-.695 2.743 1.714 2.743h.364l3.284-15.68h-2.664zm56.62-38.001V-.133h-42.71v42.71h42.709V13.694c-5.435.187-10.543.95-15.607 2.31-2.174 7.76-3.688 16.018-4.374 23.43-.197.08-.881.18-1.246.18-1.721 0-2.711-.689-2.711-2.327 0-3.972 1.557-12.261 3.521-19.814a85.358 85.358 0 0 0-7.234 2.865 99.844 99.844 0 0 0-2.32 14.617c-.219.107-.836.193-1.216.193-1.381 0-2.338-.919-2.338-2.484 0-2.641.517-6.314 1.306-10.144a130.29 130.29 0 0 0-6.295 3.416c-.216-.407-.281-.962-.233-1.28.068-.461.354-1.448 1.447-2.234 2.137-1.535 3.353-2.133 5.887-3.492 1.125-4.614 2.538-9.062 3.825-11.84.817-1.764 1.863-2.445 3.658-2.445.474 0 1.128.112 1.467.22-1.639 3.556-3.061 7.542-4.23 11.743a75.99 75.99 0 0 1 7.288-2.835c1.162-4.025 2.391-7.554 3.487-9.686.66-1.286 1.676-1.959 3.19-1.959.702 0 1.474.111 1.917.276-1.362 3.066-2.597 6.426-3.702 9.932a72.031 72.031 0 0 1 14.514-2.185M52.053 33.602h.27l.16.697h.002l.157-.697h.267v.885h-.172v-.74h-.002l-.165.74h-.182l-.161-.74h-.003v.74h-.172v-.885h.001zm-.822 0h.72v.157h-.267v.727h-.185v-.727h-.268v-.157z"/></svg>