<svg xmlns="http://www.w3.org/2000/svg" width="95" height="68"><path d="M7.778 27.001c4.869 0 8.075 3.325 8.075 8.312 0 4.631-3.325 7.956-8.075 7.956-4.513 0-7.956-3.562-7.956-8.193-.001-4.631 3.443-8.075 7.956-8.075zm-5.463 8.075c0 2.375.476 4.394 1.425 5.819.951 1.306 2.256 1.9 4.156 1.9 3.8 0 5.7-2.375 5.7-7.363 0-5.344-2.019-8.075-5.819-8.075-3.561-.001-5.462 2.731-5.462 7.719zm23.869 1.306c0 1.781-1.9 3.325-4.394 3.325h-.951c-.95.237-1.306.594-1.306 1.187 0 .475.356.831 1.069.95.356 0 .712 0 1.306.119h.594c3.087.237 4.513 1.187 4.513 3.206 0 2.256-2.138 3.681-5.7 3.681-2.969 0-4.75-1.069-4.75-2.85 0-1.425 1.069-2.257 2.612-2.257 1.187 0 1.9.476 1.9 1.187 0 .356-.237.594-.475.594s-.357-.237-.357-.475c-.119-.712-.475-.951-1.187-.951-.951 0-1.544.712-1.544 1.662 0 1.662 1.544 2.612 3.919 2.612 2.494 0 3.919-1.069 3.919-2.731 0-.712-.356-1.425-.95-1.781-.594-.237-1.069-.357-2.256-.476l-.951-.119h-.237c-.594 0-1.069-.119-1.544-.119-.951-.237-1.425-.712-1.425-1.425 0-.95.951-1.781 2.375-2.137-2.019-.594-3.087-1.662-3.087-3.325 0-2.019 1.9-3.562 4.394-3.562.95 0 2.019.237 2.612.712v-.356c0-1.187.712-1.9 1.662-1.9.594 0 .951.237.951.712 0 .357-.356.594-.951.594h-.594c-.119-.119-.237-.119-.237-.119h-.119c-.237 0-.356.356-.356.831v.476c.951.716 1.545 1.666 1.545 2.735zm-7.006-.119c0 2.138.831 3.087 2.612 3.087.475 0 .831-.119 1.187-.237.951-.357 1.187-.95 1.187-2.494 0-2.494-.712-3.562-2.494-3.562h-.119c-1.542.118-2.373 1.187-2.373 3.206zm11.756 5.344c0 .712.237 1.069.831 1.069h.119c.119 0 .119 0 .119.119s0 .119-.119.119h-4.037c-.119 0-.237 0-.237-.119s.119-.119.237-.119h.119c.712 0 1.069-.475 1.069-1.306v-5.937c0-.594-.119-.951-.237-1.187-.237-.237-.475-.356-.831-.356h-.237c-.119 0-.237 0-.237-.119 0 0 .119 0 .237-.119l2.85-.831h.237c.119 0 .119 0 .119.237v8.549h-.002zm0-11.994c0 .594-.476.951-1.069.951-.712 0-1.069-.356-1.069-.951 0-.475.475-.95 1.069-.95s1.069.356 1.069.95zm5.344 10.45c0 .951 0 1.425.237 1.781.237.476.95.831 1.544.831h.119c.237 0 .237 0 .237.119s0 .119-.237.119h-5.225c-.237 0-.237 0-.237-.119s.119-.119.237-.119h.119c.237 0 .594-.118.831-.356.356-.237.475-.831.475-2.256v-10.45c0-.95-.237-1.544-.95-1.544l-.237-.119h-.119c0-.119 0-.119.119-.119L35.923 27h.237c.119 0 .119 0 .119.237l-.001 12.826zm22.206-5.225c.237-.357.475-.476.712-.476.476 0 .357.476.357.831 0 2.137.475 4.275 1.544 5.7.831 1.306 2.137 1.9 4.038 1.9 3.8 0 5.7-2.375 5.7-7.363 0-5.344-2.018-8.075-5.819-8.075-2.85 0-4.631 1.9-5.344 5.225-.119 1.306-1.662-.712-3.206 3.8-.119.237-3.325 8.431-3.325 8.431-.119.475-.356 1.069-.594 1.425-.594 1.306-1.781 2.019-3.087 2.019-1.069 0-1.662-.475-1.662-1.069 0-.475.357-.831.831-.831.475 0 .831.119 1.187.594l.119.356c.119.119.356.237.475.237.356 0 .831-.237 1.187-.594.475-.594.712-1.069 1.187-2.375l.356-.831-3.444-8.312-.237-.475c-.475-1.069-.831-1.781-1.425-1.781-.712 0-1.187.951-1.9 2.732l-2.969 6.888c0 .237-.119.356-.237.356-.119 0-.237-.119-.237-.356l-3.325-7.718c-.475-1.187-.831-1.781-1.425-1.9h-.119l-.237-.119c0-.119 0-.119.119-.119h4.631c.119 0 .119 0 .119.119l-.119.119h-.119c-.712.119-.95.476-.95 1.069 0 .119 0 .357.119.594l2.375 5.7 1.781-4.631c.237-.594.356-1.069.356-1.425 0-.712-.356-1.069-.951-1.306h-.119c-.119 0-.237-.119-.237-.119 0-.119.119-.119.237-.119h8.192c.119 0 .119 0 .119.119 0 0 0 .119-.119.119h-.355c-.831.237-1.187.594-1.187 1.306 0 .237.119.594.237.831l2.375 6.056 2.019-5.462c.237-.594 1.306-3.325 1.306-3.325 1.188-3.445 3.92-5.583 7.72-5.583 4.75 0 8.075 3.325 8.075 8.312 0 4.631-3.444 7.956-8.075 7.956-3.8 0-6.65-2.138-7.363-5.582-.237-1.186.12-2.255.713-2.848zm21.85-2.137c2.256 0 3.444 1.187 3.444 3.681v4.869c0 .831.475 1.424 1.306 1.424h.119c.119 0 .237 0 .237.119s0 .119-.237.119H80.69c-.119 0-.119 0-.119-.119s0-.119.119-.119h.119c.712 0 1.069-.475 1.069-1.306v-5.462c0-1.663-.831-2.612-2.137-2.612-1.425 0-2.375.95-2.375 2.256v5.344c0 1.069.475 1.781 1.187 1.781h.119c.119 0 .119 0 .119.119s0 .119-.119.119h-4.394c-.119 0-.237 0-.237-.119s.119-.119.119-.119h.119c.712 0 1.187-.475 1.187-1.187v-6.175c0-.831-.356-1.306-.95-1.306h-.237c-.119 0-.237 0-.237-.119l.119-.119h.119l2.612-.831h.237c.119 0 .119.119.119.357v.95c.711-1.071 1.661-1.545 3.086-1.545zm7.243 4.393c-.119 0-.237.119-.237.356 0 3.087 1.425 5.107 3.681 5.107 1.544 0 2.969-1.069 3.444-2.494v-.119c.119-.237.119-.237.237-.237.119 0 .119 0 .119.119v.356c-.594 1.781-2.256 2.969-4.275 2.969-2.969 0-5.107-2.256-5.107-5.225s2.137-5.225 4.869-5.225c2.375 0 4.394 2.019 4.394 4.275 0 .119 0 .119-.119.119l-7.006-.001zm4.988-.475c.237 0 .237 0 .237-.237 0-1.9-1.069-3.206-2.612-3.206-1.662 0-2.85 1.187-2.85 3.444h5.225v-.001zM62.047 48.256c.356.951.712 1.9 1.069 2.969h.118c.237-1.187.594-2.137.831-3.087l.712.119-1.425 3.919h-.475c-.356-.95-.831-1.9-1.187-3.087-.356 1.187-.712 2.137-1.187 3.087h-.356l-1.425-3.8.712-.237c.356.951.594 1.9.951 3.087.356-1.069.831-2.019 1.187-2.969l.475-.001zm2.968 1.901c0-1.306.95-2.019 2.019-2.019.95 0 1.9.712 1.9 2.019 0 1.187-.831 2.137-1.9 2.137-1.188 0-2.019-.95-2.019-2.137zm.831 0c0 .712.237 1.662 1.187 1.662.831 0 1.069-.951 1.069-1.662 0-.712-.237-1.544-1.069-1.544-.949 0-1.187.831-1.187 1.544zm4.513-1.426l.237-.357c.237-.119.475-.237.594-.237.237 0 .475.119.712.357l-.356.476c-.119-.119-.356-.119-.476-.119-.356 0-.712.357-.712 1.187v2.137h-.712v-3.919h.712l.001.475zm2.019 3.444h.712v-5.818h-.712zm4.512-.593c-.237.357-.712.712-1.306.712-1.069 0-1.781-.831-1.781-2.137 0-1.069.712-2.019 1.9-2.019.475 0 .951.237 1.187.594v-2.375h.712v5.818h-.712v-.593zm0-1.544c0-.712-.356-1.425-1.187-1.425-.831 0-1.069.712-1.069 1.544 0 .831.356 1.662 1.069 1.662.831 0 1.187-.831 1.187-1.781zm4.513-1.782c.475.951.831 1.9 1.187 2.969.357-1.187.594-2.137.951-3.087l.712.119-1.424 3.919h-.476c-.475-.95-.831-1.9-1.187-3.087-.475 1.187-.831 2.137-1.187 3.087h-.475l-1.306-3.8.594-.237c.356.951.712 1.9 1.069 3.087a80.41 80.41 0 0 1 1.069-2.969l.473-.001zm3.325 0h.712v3.919h-.712v-3.919zm-.12-1.305c0-.237.237-.476.475-.476.237 0 .475.237.475.476 0 .237-.119.475-.475.475-.355 0-.475-.238-.475-.475zm4.632 4.631c-.237.357-.712.712-1.306.712-1.069 0-1.781-.831-1.781-2.137 0-1.069.712-2.019 1.781-2.019.594 0 1.069.237 1.306.594v-2.375h.712v5.818h-.712v-.593zm0-1.544c0-.712-.356-1.425-1.187-1.425-.831 0-1.069.712-1.069 1.544 0 .831.357 1.662 1.069 1.662.831 0 1.187-.831 1.187-1.781zm2.137.238c0 .712.475 1.544 1.306 1.544.356 0 .831-.237 1.069-.356l.237.356c-.475.237-.95.475-1.306.475-1.306 0-2.019-.831-2.019-2.137 0-1.425.951-2.019 1.781-2.019 1.187 0 1.662 1.069 1.544 2.138l-2.612-.001zm2.019-.475c0-.594-.356-1.187-.951-1.187-.712 0-1.069.712-1.069 1.187h2.02z" fill="#1D1B1A"/></svg>