<svg xmlns="http://www.w3.org/2000/svg" width="95" height="68"><g fill="#1D1B1A"><path d="M33.774 27.117c-3.285 0-6.771 1.125-8.747 2.926a7.284 7.284 0 0 0-2.381 5.406c0 2.01.769 3.973 2.381 5.414 2.124 1.913 5.312 2.941 8.747 2.941 3.443 0 6.699-1.016 8.769-2.941 1.532-1.421 2.347-3.482 2.347-5.414 0-1.998-.764-3.964-2.347-5.401-2.223-2.019-5.132-2.931-8.769-2.931m4.696 12.684c-1.183 1.173-2.87 1.804-4.696 1.804-1.811 0-3.537-.645-4.701-1.804-1.12-1.113-1.716-2.686-1.716-4.352 0-1.68.592-3.254 1.716-4.366 1.163-1.151 2.895-1.794 4.701-1.794 1.797 0 3.525.645 4.696 1.794 1.127 1.113 1.716 2.681 1.716 4.366.001 1.748-.542 3.183-1.716 4.352m-21.981-5.314a11.678 11.678 0 0 0-1.84-.647c-1.197-.288-3.894-.652-5.191-.786-1.353-.143-3.702-.334-4.638-.628-.286-.087-.863-.364-.863-1.038 0-.477.262-.885.785-1.214.834-.516 2.514-.841 4.267-.841 2.07-.005 3.821.463 4.941.965.378.17.82.412 1.176.7.395.327.958.997 1.159 1.937h1.867v-5.084h-2.087v.594c0 .189-.196.434-.572.23-.931-.49-3.576-1.547-6.817-1.552-1.838 0-3.922.342-5.697 1.137C1.343 28.991 0 30.169 0 32.13c0 1.757 1.12 2.793 1.091 2.766.48.436 1.246 1.188 3.249 1.624.897.196 2.817.497 4.723.696 1.895.206 3.763.388 4.521.584.603.155 1.617.364 1.617 1.498 0 1.132-1.067 1.476-1.256 1.552-.184.075-1.465.659-3.77.659-1.699 0-3.743-.509-4.487-.773-.858-.306-1.76-.71-2.599-1.739-.209-.256-.539-.951-.539-1.647H.466v5.843h2.318v-.79c0-.09.111-.46.5-.283.485.221 1.908.785 3.389 1.098 1.217.255 2.003.434 3.518.434 2.468 0 3.799-.403 4.715-.664.863-.247 1.93-.691 2.8-1.384.468-.373 1.496-1.331 1.496-3.077a4.325 4.325 0 0 0-1.212-3.021c-.428-.428-.951-.762-1.501-1.019M61.592 29.9h1.915c.883 0 1.033.342 1.043 1.154l.102 6.192-10.192-9.198h-7.286v1.854h1.622c1.175 0 1.252.662 1.252 1.222v8.679c0 .516.029 1.229-.718 1.229h-2.004v1.854h8.559v-1.854H53.79c-.829 0-.868-.38-.883-1.19v-7.431l11.739 10.476h2.987l-.155-11.833c.005-.866.063-1.154.96-1.154h1.872v-1.849h-8.718V29.9zm24.603 11.099l-.403-.361-.039-.398v-2.926l.068-.272c.141-.167 5.406-6.172 5.639-6.439.509-.577.786-.701 1.464-.701h1.872v-1.854h-8.374v1.854h1.261c.359 0 .47.373.306.572l-3.549 4.163-.101-.012-3.477-4.158c-.242-.298-.053-.567.233-.567h1.232v-1.852H72.104v1.854h1.813c.795 0 1.314.495 1.605.822.237.262 5.44 6.161 5.576 6.333l.126.257v2.926l-.044.398-.398.361-.514.032H78.45v1.854h10.168V41.03h-1.91l-.513-.031zm7.772 1.044l-.014-.446c-.019-.344-.16-.405-.296-.463.155-.094.339-.226.339-.592 0-.524-.407-.664-.81-.664h-1.14v2.466h.334v-1.055h.805c.403 0 .441.235.441.436l.058.618h.408v-.051l-.125-.249zm-.814-1.042h-.771v-.839h.829c.165 0 .446.032.446.415 0 .363-.257.424-.504.424"/><path d="M92.992 39.13a2.01 2.01 0 0 0-2.007 2.005c0 1.105.902 2.008 2.007 2.008A2.012 2.012 0 0 0 95 41.135a2.01 2.01 0 0 0-2.008-2.005m0 3.779c-.979 0-1.78-.795-1.78-1.775s.8-1.78 1.78-1.78c.979 0 1.775.8 1.775 1.78s-.795 1.775-1.775 1.775"/></g></svg>