<svg xmlns="http://www.w3.org/2000/svg" width="95" height="68"><path fill="#1D1B1A" d="M1.213 28.69v-7.315h13.498v14.63H3.201l.196-.326c1.214-2.016 2.767-4.279 3.886-5.66l.731-.902-.2-.167c-.111-.092-.224-.169-.253-.17-.16-.009-1.959 2.306-2.905 3.736-.586.885-1.465 2.39-1.796 3.075l-.201.414H1.213V28.69zM.61 42.847c-.004-.092.017-.143.046-.114.029.029.032.105.007.167-.028.07-.048.049-.053-.053m-.603.646c0-.12.02-.169.044-.108a.339.339 0 0 1 0 .218c-.024.059-.044.011-.044-.11M0 44.502c-.004-.092.017-.143.046-.114.029.029.032.104.007.167-.028.069-.049.049-.053-.053m22.113 1.561v-2.917h5.835v5.834h-5.835v-2.917z"/><path fill="#1D1B1A" d="M46.364 31.938c-.327-.144-.522-.361-.693-.771-.347-.83.118-1.85.924-2.027.389-.086 1.001.115 1.25.41.996 1.185-.122 2.988-1.481 2.388m43.411 11.896c0-.238.026-.258.414-.303.694-.083.873-.188.977-.578.064-.237.086-2.235.07-6.256-.027-6.765.025-6.325-.767-6.431-.306-.04-.466-.11-.529-.228-.05-.093-.076-.185-.058-.202.018-.018.474-.097 1.015-.176s1.331-.23 1.757-.334l.776-.19.024 6.887c.022 6.375.035 6.905.176 7.119.16.245.604.413 1.089.414.256 0 .281.024.281.267v.266l-.413-.064c-.228-.035-1.217-.064-2.199-.064-.982 0-1.972.029-2.199.064l-.414.064v-.255zm-17.155-.087v-.342l.508-.046c.657-.06 1.015-.247 1.137-.597.067-.193.097-2.156.097-6.447v-6.17h-.681c-.921 0-1.546.195-1.936.605-.357.373-.716 1.09-.924 1.837-.14.505-.153.518-.441.518-.278 0-.294-.015-.248-.24.027-.132.148-.847.27-1.589a97.46 97.46 0 0 1 .269-1.589l.049-.24h4.826c2.655 0 4.826.014 4.826.032 0 .018.137.804.305 1.748.168.944.305 1.753.305 1.797 0 .044-.128.081-.284.081-.276 0-.289-.015-.449-.588-.314-1.117-.762-1.805-1.39-2.133-.279-.146-.557-.195-1.251-.224l-.893-.037v6.232c0 4.646.027 6.29.104 6.46.139.306.514.486 1.129.542l.508.046v.683l-.414-.066c-.227-.037-1.354-.066-2.503-.066-1.15 0-2.276.03-2.504.066l-.414.066-.001-.339zm-22.032.086c0-.248.015-.257.532-.316.392-.044.586-.115.74-.268l.208-.208v-3.953c0-2.556-.033-4.047-.092-4.218-.101-.29-.322-.371-1.013-.371-.369 0-.386-.011-.359-.235.027-.226.058-.24.809-.347.43-.061 1.109-.194 1.51-.295.4-.1.745-.165.766-.144.061.061.292 1.216.294 1.469.001.212.05.181.633-.4.863-.861 1.319-1.034 2.591-.987.776.029.981.069 1.358.263.755.391 1.199 1.034 1.418 2.055.063.293.098 1.598.099 3.611.001 1.828.037 3.284.087 3.465.1.36.34.502.974.577.393.047.418.065.418.306 0 .244-.013.252-.283.191-.155-.036-1.106-.065-2.112-.065-1.005 0-1.956.029-2.112.065-.273.062-.283.054-.283-.204 0-.235.03-.268.239-.268.386-.001.789-.298.85-.627.029-.158.041-1.835.027-3.727l-.027-3.44-.218-.434c-.298-.595-.647-.785-1.437-.785-.85 0-1.326.279-1.67.98l-.246.501-.029 3.048c-.015 1.677-.003 3.255.029 3.508.074.6.316.884.805.95.34.045.37.07.37.305v.255l-.414-.064c-.227-.035-1.138-.064-2.025-.064s-1.797.028-2.025.063l-.413.064v-.256h.001zm-6.182-.005c0-.261.015-.273.351-.273.581 0 .928-.195 1.036-.581.121-.436.127-7.443.006-7.867-.137-.479-.212-.544-.69-.589-.376-.036-.468-.081-.568-.275l-.12-.232.907-.108a17.98 17.98 0 0 0 1.863-.348l.957-.24.024 4.91.023 4.91.201.163c.117.095.419.188.719.221.503.057.517.065.517.318 0 .251-.01.258-.317.2-.402-.076-3.339-.072-4.233.004l-.676.059v-.272zm41.833-6.434c-.139-1.785-.353-2.54-.86-3.048-.354-.354-.394-.371-.892-.371-.633 0-.993.209-1.348.785-.3.487-.576 1.55-.649 2.497l-.056.723h3.851l-.046-.586zm-2.647 6.768c-1.105-.231-2.212-1.125-2.748-2.217-.496-1.013-.604-1.565-.604-3.091 0-1.013.038-1.491.153-1.916.391-1.447 1.276-2.653 2.316-3.151.518-.248.68-.282 1.547-.315 1.083-.043 1.573.069 2.316.526.453.279 1.005.921 1.281 1.49.261.538.51 1.593.579 2.446l.061.746h-6.032v.729c0 2.052.602 3.514 1.624 3.94.429.179 1.646.153 2.081-.044.677-.307 1.296-1.235 1.48-2.216.058-.311.07-.32.449-.32h.389l-.061.283c-.115.536-.471 1.381-.739 1.754-.344.479-1.001.979-1.584 1.204-.528.204-1.869.285-2.508.152m-49.724-2.296v-2.491h.247c.238 0 .254.027.435.762.362 1.47 1.112 2.565 2.088 3.044.447.22.585.243 1.41.243 1.057 0 1.47-.149 2.093-.754.538-.523.734-1.018.734-1.859 0-1.361-.405-1.829-2.796-3.221-1.628-.948-2.743-1.715-3.183-2.188-.612-.66-.943-1.911-.781-2.954a3.73 3.73 0 0 1 2.946-3.092c.27-.056.905-.087 1.412-.07.855.03.97.056 1.575.354.359.177.779.425.933.552l.279.23.327-.662c.264-.535.365-.662.526-.662h.199v4.267h-.285c-.28 0-.288-.011-.443-.61-.468-1.817-1.48-2.783-2.919-2.785-.934-.001-1.278.128-1.853.699-.687.682-.92 1.499-.677 2.372.183.659.617 1.018 2.607 2.157 2.667 1.526 3.307 2.037 3.756 2.997.945 2.018.151 4.511-1.761 5.531-.567.303-1.461.522-2.125.522-1.002 0-2.304-.444-3.173-1.082l-.408-.3-.583.745-.583.745.003-2.49zm33.335-2.376c.314-.232.605-.67.734-1.108.174-.584.144-2.702-.047-3.247-.32-.917-1.176-1.355-2.02-1.033-.839.32-1.131 1.03-1.131 2.748 0 .729.045 1.329.118 1.579.141.484.551 1.007.921 1.176.369.167 1.126.107 1.425-.115m.122 8.149c.685-.143 1.444-.576 1.706-.971.323-.488.361-1.143.089-1.543-.266-.391-.679-.666-1.285-.854-.384-.119-.816-.15-2.096-.15-1.584 0-1.619.004-2.09.24-.659.331-.827.585-.827 1.256 0 .456.039.592.264.914.311.445 1.303.996 2 1.112.649.107 1.716.105 2.239-.004m-2.51.663c-1.106-.24-2.104-.901-2.495-1.651-.137-.263-.185-.518-.188-1.006-.004-.563.028-.71.236-1.064.232-.395.705-.786 1.223-1.009l.245-.106-.367-.282c-.812-.624-.924-1.574-.271-2.274.234-.25 1.33-.834 1.582-.843.073-.002-.093-.121-.371-.264-1.09-.563-1.624-1.408-1.697-2.694-.081-1.419.476-2.54 1.547-3.119.682-.367 1.287-.477 2.4-.434.778.03 1.057.08 1.525.272.535.219.66.234 1.894.234h1.32v.958H69.58l.235.501c.208.446.234.602.232 1.415-.002 1.017-.136 1.439-.667 2.11-.557.704-1.325 1.039-3.129 1.365-1.286.233-1.57.317-1.802.533-.212.198-.251.579-.082.808.109.147 1.106.303 2.895.452 1.746.145 2.63.448 3.216 1.1.954 1.061.882 2.736-.162 3.78-.536.536-1.506 1.036-2.358 1.215-.749.16-2.419.161-3.143.003M3.868 50.259a4.96 4.96 0 0 1-2.543-1.386c-.482-.499-1.035-1.604-1.202-2.4-.147-.705-.167-2.251-.039-3.135.235-1.628.845-3.781 1.562-5.508.349-.839.386-.892.621-.892.138 0 .251.018.251.039s-.233.619-.518 1.328C.9 41.043.465 43.007.54 44.906c.07 1.744.44 2.617 1.429 3.364.911.688 1.344.815 2.771.81 1.161-.004 1.257-.018 2.003-.292a16.783 16.783 0 0 0 1.394-.595c.75-.376 2.316-1.408 3.135-2.067 4.707-3.783 10.059-10.6 12.423-15.824 1.04-2.298 1.5-4.051 1.493-5.688-.007-1.479-.337-2.293-1.278-3.154-.653-.596-1.244-.817-2.344-.875l-.854-.044.027-.271.025-.27.914.008c1.542.014 2.444.379 3.347 1.355.912.985 1.319 2.037 1.412 3.643.154 2.668-.902 6.247-2.841 9.627-2.847 4.962-7.266 10.01-11.233 12.829-3.026 2.153-6.313 3.234-8.495 2.797"/></svg>