<?xml version="1.0" encoding="utf-8"?>
<!-- Generator: Adobe Illustrator 17.0.0, SVG Export Plug-In . SVG Version: 6.00 Build 0)  -->
<!DOCTYPE svg PUBLIC "-//W3C//DTD SVG 1.1//EN" "http://www.w3.org/Graphics/SVG/1.1/DTD/svg11.dtd">
<svg version="1.1" id="Layer_1" xmlns="http://www.w3.org/2000/svg" xmlns:xlink="http://www.w3.org/1999/xlink" x="0px" y="0px"
	 width="95px" height="68px" viewBox="0 0 95 68" enable-background="new 0 0 95 68" xml:space="preserve">
<path fill="#1D1B1A" d="M1.213,28.69v-7.315h6.749h6.749v7.315v7.315H8.956H3.201l0.196-0.326c1.214-2.016,2.767-4.279,3.886-5.66
	l0.731-0.902l-0.2-0.167c-0.111-0.092-0.224-0.169-0.253-0.17c-0.16-0.009-1.959,2.306-2.905,3.736
	c-0.586,0.885-1.465,2.39-1.796,3.075l-0.201,0.414H1.936H1.213L1.213,28.69L1.213,28.69z M0.61,42.847
	c-0.004-0.092,0.017-0.143,0.046-0.114c0.029,0.029,0.032,0.105,0.007,0.167C0.635,42.97,0.615,42.949,0.61,42.847 M0.007,43.493
	c0-0.12,0.02-0.169,0.044-0.108c0.024,0.06,0.024,0.158,0,0.218C0.027,43.662,0.007,43.614,0.007,43.493 M0,44.502
	c-0.004-0.092,0.017-0.143,0.046-0.114c0.029,0.029,0.032,0.104,0.007,0.167C0.025,44.624,0.004,44.604,0,44.502 M22.113,46.063
	v-2.917h2.917h2.918v2.917v2.917H25.03h-2.917V46.063z"/>
<path fill="#1D1B1A" d="M46.364,31.938c-0.327-0.144-0.522-0.361-0.693-0.771c-0.347-0.83,0.118-1.85,0.924-2.027
	c0.389-0.086,1.001,0.115,1.25,0.41C48.841,30.735,47.723,32.538,46.364,31.938 M89.775,43.834c0-0.238,0.026-0.258,0.414-0.303
	c0.694-0.083,0.873-0.188,0.977-0.578c0.064-0.237,0.086-2.235,0.07-6.256c-0.027-6.765,0.025-6.325-0.767-6.431
	c-0.306-0.04-0.466-0.11-0.529-0.228c-0.05-0.093-0.076-0.185-0.058-0.202c0.018-0.018,0.474-0.097,1.015-0.176
	s1.331-0.23,1.757-0.334l0.776-0.19l0.024,6.887c0.022,6.375,0.035,6.905,0.176,7.119c0.16,0.245,0.604,0.413,1.089,0.414
	C94.975,43.556,95,43.58,95,43.823v0.266l-0.413-0.064c-0.228-0.035-1.217-0.064-2.199-0.064c-0.982,0-1.972,0.029-2.199,0.064
	l-0.414,0.064V43.834L89.775,43.834z M72.62,43.747v-0.342l0.508-0.046c0.657-0.06,1.015-0.247,1.137-0.597
	c0.067-0.193,0.097-2.156,0.097-6.447v-6.17h-0.681c-0.921,0-1.546,0.195-1.936,0.605c-0.357,0.373-0.716,1.09-0.924,1.837
	c-0.14,0.505-0.153,0.518-0.441,0.518c-0.278,0-0.294-0.015-0.248-0.24c0.027-0.132,0.148-0.847,0.27-1.589
	c0.121-0.742,0.243-1.457,0.269-1.589l0.049-0.24h4.826c2.655,0,4.826,0.014,4.826,0.032c0,0.018,0.137,0.804,0.305,1.748
	c0.168,0.944,0.305,1.753,0.305,1.797c0,0.044-0.128,0.081-0.284,0.081c-0.276,0-0.289-0.015-0.449-0.588
	c-0.314-1.117-0.762-1.805-1.39-2.133c-0.279-0.146-0.557-0.195-1.251-0.224l-0.893-0.037v6.232c0,4.646,0.027,6.29,0.104,6.46
	c0.139,0.306,0.514,0.486,1.129,0.542l0.508,0.046v0.342v0.341l-0.414-0.066c-0.227-0.037-1.354-0.066-2.503-0.066
	c-1.15,0-2.276,0.03-2.504,0.066l-0.414,0.066L72.62,43.747L72.62,43.747z M50.588,43.833c0-0.248,0.015-0.257,0.532-0.316
	c0.392-0.044,0.586-0.115,0.74-0.268l0.208-0.208v-3.953c0-2.556-0.033-4.047-0.092-4.218c-0.101-0.29-0.322-0.371-1.013-0.371
	c-0.369,0-0.386-0.011-0.359-0.235c0.027-0.226,0.058-0.24,0.809-0.347c0.43-0.061,1.109-0.194,1.51-0.295
	c0.4-0.1,0.745-0.165,0.766-0.144c0.061,0.061,0.292,1.216,0.294,1.469c0.001,0.212,0.05,0.181,0.633-0.4
	c0.863-0.861,1.319-1.034,2.591-0.987c0.776,0.029,0.981,0.069,1.358,0.263c0.755,0.391,1.199,1.034,1.418,2.055
	c0.063,0.293,0.098,1.598,0.099,3.611c0.001,1.828,0.037,3.284,0.087,3.465c0.1,0.36,0.34,0.502,0.974,0.577
	c0.393,0.047,0.418,0.065,0.418,0.306c0,0.244-0.013,0.252-0.283,0.191c-0.155-0.036-1.106-0.065-2.112-0.065
	c-1.005,0-1.956,0.029-2.112,0.065c-0.273,0.062-0.283,0.054-0.283-0.204c0-0.235,0.03-0.268,0.239-0.268
	c0.386-0.001,0.789-0.298,0.85-0.627c0.029-0.158,0.041-1.835,0.027-3.727l-0.027-3.44l-0.218-0.434
	c-0.298-0.595-0.647-0.785-1.437-0.785c-0.85,0-1.326,0.279-1.67,0.98l-0.246,0.501l-0.029,3.048
	c-0.015,1.677-0.003,3.255,0.029,3.508c0.074,0.6,0.316,0.884,0.805,0.95c0.34,0.045,0.37,0.07,0.37,0.305v0.255l-0.414-0.064
	c-0.227-0.035-1.138-0.064-2.025-0.064S51.228,43.99,51,44.025l-0.413,0.064v-0.256L50.588,43.833L50.588,43.833z M44.406,43.828
	c0-0.261,0.015-0.273,0.351-0.273c0.581,0,0.928-0.195,1.036-0.581c0.121-0.436,0.127-7.443,0.006-7.867
	c-0.137-0.479-0.212-0.544-0.69-0.589c-0.376-0.036-0.468-0.081-0.568-0.275l-0.12-0.232l0.907-0.108
	c0.498-0.059,1.337-0.216,1.863-0.348l0.957-0.24l0.024,4.91l0.023,4.91l0.201,0.163c0.117,0.095,0.419,0.188,0.719,0.221
	c0.503,0.057,0.517,0.065,0.517,0.318c0,0.251-0.01,0.258-0.317,0.2c-0.402-0.076-3.339-0.072-4.233,0.004L44.406,44.1
	L44.406,43.828L44.406,43.828z M86.239,37.394c-0.139-1.785-0.353-2.54-0.86-3.048c-0.354-0.354-0.394-0.371-0.892-0.371
	c-0.633,0-0.993,0.209-1.348,0.785c-0.3,0.487-0.576,1.55-0.649,2.497l-0.056,0.723h1.926h1.925L86.239,37.394z M83.592,44.162
	c-1.105-0.231-2.212-1.125-2.748-2.217c-0.496-1.013-0.604-1.565-0.604-3.091c0-1.013,0.038-1.491,0.153-1.916
	c0.391-1.447,1.276-2.653,2.316-3.151c0.518-0.248,0.68-0.282,1.547-0.315c1.083-0.043,1.573,0.069,2.316,0.526
	c0.453,0.279,1.005,0.921,1.281,1.49c0.261,0.538,0.51,1.593,0.579,2.446l0.061,0.746h-3.016h-3.016v0.729
	c0,2.052,0.602,3.514,1.624,3.94c0.429,0.179,1.646,0.153,2.081-0.044c0.677-0.307,1.296-1.235,1.48-2.216
	c0.058-0.311,0.07-0.32,0.449-0.32h0.389l-0.061,0.283c-0.115,0.536-0.471,1.381-0.739,1.754c-0.344,0.479-1.001,0.979-1.584,1.204
	C85.572,44.214,84.231,44.295,83.592,44.162 M33.868,41.866v-2.491h0.247c0.238,0,0.254,0.027,0.435,0.762
	c0.362,1.47,1.112,2.565,2.088,3.044c0.447,0.22,0.585,0.243,1.41,0.243c1.057,0,1.47-0.149,2.093-0.754
	c0.538-0.523,0.734-1.018,0.734-1.859c0-1.361-0.405-1.829-2.796-3.221c-1.628-0.948-2.743-1.715-3.183-2.188
	c-0.612-0.66-0.943-1.911-0.781-2.954c0.242-1.552,1.404-2.773,2.946-3.092c0.27-0.056,0.905-0.087,1.412-0.07
	c0.855,0.03,0.97,0.056,1.575,0.354c0.359,0.177,0.779,0.425,0.933,0.552l0.279,0.23l0.327-0.662
	c0.264-0.535,0.365-0.662,0.526-0.662h0.199v2.134v2.133h-0.285c-0.28,0-0.288-0.011-0.443-0.61
	c-0.468-1.817-1.48-2.783-2.919-2.785c-0.934-0.001-1.278,0.128-1.853,0.699c-0.687,0.682-0.92,1.499-0.677,2.372
	c0.183,0.659,0.617,1.018,2.607,2.157c2.667,1.526,3.307,2.037,3.756,2.997c0.945,2.018,0.151,4.511-1.761,5.531
	c-0.567,0.303-1.461,0.522-2.125,0.522c-1.002,0-2.304-0.444-3.173-1.082l-0.408-0.3l-0.583,0.745l-0.583,0.745L33.868,41.866
	L33.868,41.866z M67.203,39.49c0.314-0.232,0.605-0.67,0.734-1.108c0.174-0.584,0.144-2.702-0.047-3.247
	c-0.32-0.917-1.176-1.355-2.02-1.033c-0.839,0.32-1.131,1.03-1.131,2.748c0,0.729,0.045,1.329,0.118,1.579
	c0.141,0.484,0.551,1.007,0.921,1.176C66.147,39.772,66.904,39.712,67.203,39.49 M67.325,47.639
	c0.685-0.143,1.444-0.576,1.706-0.971c0.323-0.488,0.361-1.143,0.089-1.543c-0.266-0.391-0.679-0.666-1.285-0.854
	c-0.384-0.119-0.816-0.15-2.096-0.15c-1.584,0-1.619,0.004-2.09,0.24c-0.659,0.331-0.827,0.585-0.827,1.256
	c0,0.456,0.039,0.592,0.264,0.914c0.311,0.445,1.303,0.996,2,1.112C65.735,47.75,66.802,47.748,67.325,47.639 M64.815,48.302
	c-1.106-0.24-2.104-0.901-2.495-1.651c-0.137-0.263-0.185-0.518-0.188-1.006c-0.004-0.563,0.028-0.71,0.236-1.064
	c0.232-0.395,0.705-0.786,1.223-1.009l0.245-0.106l-0.367-0.282c-0.812-0.624-0.924-1.574-0.271-2.274
	c0.234-0.25,1.33-0.834,1.582-0.843c0.073-0.002-0.093-0.121-0.371-0.264c-1.09-0.563-1.624-1.408-1.697-2.694
	c-0.081-1.419,0.476-2.54,1.547-3.119c0.682-0.367,1.287-0.477,2.4-0.434c0.778,0.03,1.057,0.08,1.525,0.272
	c0.535,0.219,0.66,0.234,1.894,0.234h1.32v0.479v0.479h-0.909h-0.909l0.235,0.501c0.208,0.446,0.234,0.602,0.232,1.415
	c-0.002,1.017-0.136,1.439-0.667,2.11c-0.557,0.704-1.325,1.039-3.129,1.365c-1.286,0.233-1.57,0.317-1.802,0.533
	c-0.212,0.198-0.251,0.579-0.082,0.808c0.109,0.147,1.106,0.303,2.895,0.452c1.746,0.145,2.63,0.448,3.216,1.1
	c0.954,1.061,0.882,2.736-0.162,3.78c-0.536,0.536-1.506,1.036-2.358,1.215C67.209,48.459,65.539,48.46,64.815,48.302 M3.868,50.259
	c-0.952-0.191-1.874-0.693-2.543-1.386c-0.482-0.499-1.035-1.604-1.202-2.4c-0.147-0.705-0.167-2.251-0.039-3.135
	c0.235-1.628,0.845-3.781,1.562-5.508c0.349-0.839,0.386-0.892,0.621-0.892c0.138,0,0.251,0.018,0.251,0.039
	c0,0.021-0.233,0.619-0.518,1.328c-1.1,2.738-1.535,4.702-1.46,6.601C0.61,46.65,0.98,47.523,1.969,48.27
	c0.911,0.688,1.344,0.815,2.771,0.81c1.161-0.004,1.257-0.018,2.003-0.292c0.431-0.159,1.058-0.427,1.394-0.595
	c0.75-0.376,2.316-1.408,3.135-2.067c4.707-3.783,10.059-10.6,12.423-15.824c1.04-2.298,1.5-4.051,1.493-5.688
	c-0.007-1.479-0.337-2.293-1.278-3.154c-0.653-0.596-1.244-0.817-2.344-0.875l-0.854-0.044l0.027-0.271L20.764,20l0.914,0.008
	c1.542,0.014,2.444,0.379,3.347,1.355c0.912,0.985,1.319,2.037,1.412,3.643c0.154,2.668-0.902,6.247-2.841,9.627
	c-2.847,4.962-7.266,10.01-11.233,12.829C9.337,49.615,6.05,50.696,3.868,50.259"/>
</svg>
