<?xml version="1.0" encoding="utf-8"?>
<!-- Generator: Adobe Illustrator 17.0.0, SVG Export Plug-In . SVG Version: 6.00 Build 0)  -->
<!DOCTYPE svg PUBLIC "-//W3C//DTD SVG 1.1//EN" "http://www.w3.org/Graphics/SVG/1.1/DTD/svg11.dtd">
<svg version="1.1" id="Layer_1" xmlns="http://www.w3.org/2000/svg" xmlns:xlink="http://www.w3.org/1999/xlink" x="0px" y="0px"
	 width="95px" height="68px" viewBox="0 0 95 68" enable-background="new 0 0 95 68" xml:space="preserve">
<g>
	<path fill="#1D1B1A" d="M7.778,27.001c4.869,0,8.075,3.325,8.075,8.312c0,4.631-3.325,7.956-8.075,7.956
		c-4.513,0-7.956-3.562-7.956-8.193C-0.179,30.445,3.265,27.001,7.778,27.001L7.778,27.001z M2.315,35.076
		c0,2.375,0.476,4.394,1.425,5.819c0.951,1.306,2.256,1.9,4.156,1.9c3.8,0,5.7-2.375,5.7-7.363c0-5.344-2.019-8.075-5.819-8.075
		C4.216,27.356,2.315,30.088,2.315,35.076L2.315,35.076z"/>
	<path fill="#1D1B1A" d="M26.184,36.382c0,1.781-1.9,3.325-4.394,3.325c-0.237,0-0.594,0-0.951,0
		c-0.95,0.237-1.306,0.594-1.306,1.187c0,0.475,0.356,0.831,1.069,0.95c0.356,0,0.712,0,1.306,0.119h0.594
		c3.087,0.237,4.513,1.187,4.513,3.206c0,2.256-2.138,3.681-5.7,3.681c-2.969,0-4.75-1.069-4.75-2.85
		c0-1.425,1.069-2.257,2.612-2.257c1.187,0,1.9,0.476,1.9,1.187c0,0.356-0.237,0.594-0.475,0.594s-0.357-0.237-0.357-0.475
		c-0.119-0.712-0.475-0.951-1.187-0.951c-0.951,0-1.544,0.712-1.544,1.662c0,1.662,1.544,2.612,3.919,2.612
		c2.494,0,3.919-1.069,3.919-2.731c0-0.712-0.356-1.425-0.95-1.781c-0.594-0.237-1.069-0.357-2.256-0.476l-0.951-0.119h-0.237
		c-0.594,0-1.069-0.119-1.544-0.119c-0.951-0.237-1.425-0.712-1.425-1.425c0-0.95,0.951-1.781,2.375-2.137
		c-2.019-0.594-3.087-1.662-3.087-3.325c0-2.019,1.9-3.562,4.394-3.562c0.95,0,2.019,0.237,2.612,0.712v-0.119
		c0-0.119,0-0.119,0-0.237c0-1.187,0.712-1.9,1.662-1.9c0.594,0,0.951,0.237,0.951,0.712c0,0.357-0.356,0.594-0.951,0.594
		c-0.237,0-0.475,0-0.594,0c-0.119-0.119-0.237-0.119-0.237-0.119s0,0-0.119,0c-0.237,0-0.356,0.356-0.356,0.831
		c0,0.237,0,0.357,0,0.476C25.59,34.363,26.184,35.313,26.184,36.382L26.184,36.382z M19.178,36.263
		c0,2.138,0.831,3.087,2.612,3.087c0.475,0,0.831-0.119,1.187-0.237c0.951-0.357,1.187-0.95,1.187-2.494
		c0-2.494-0.712-3.562-2.494-3.562h-0.119C20.009,33.175,19.178,34.244,19.178,36.263L19.178,36.263z"/>
	<path fill="#1D1B1A" d="M30.934,41.607c0,0.712,0.237,1.069,0.831,1.069h0.119c0.119,0,0.119,0,0.119,0.119s0,0.119-0.119,0.119
		h-4.037c-0.119,0-0.237,0-0.237-0.119s0.119-0.119,0.237-0.119h0.119c0.712,0,1.069-0.475,1.069-1.306v-5.937
		c0-0.594-0.119-0.951-0.237-1.187c-0.237-0.237-0.475-0.356-0.831-0.356h-0.237c-0.119,0-0.237,0-0.237-0.119
		c0,0,0.119,0,0.237-0.119l2.85-0.831c0.119,0,0.119,0,0.237,0c0.119,0,0.119,0,0.119,0.237V41.607
		C30.933,41.607,30.934,41.607,30.934,41.607z M30.934,29.613c0,0.594-0.476,0.951-1.069,0.951c-0.712,0-1.069-0.356-1.069-0.951
		c0-0.475,0.475-0.95,1.069-0.95C30.459,28.663,30.934,29.019,30.934,29.613L30.934,29.613z"/>
	<path fill="#1D1B1A" d="M36.278,40.063c0,0.951,0,1.425,0.237,1.781c0.237,0.476,0.95,0.831,1.544,0.831h0.119
		c0.237,0,0.237,0,0.237,0.119c0,0.119,0,0.119-0.237,0.119h-5.225c-0.237,0-0.237,0-0.237-0.119c0-0.119,0.119-0.119,0.237-0.119
		h0.119c0.237,0,0.594-0.118,0.831-0.356c0.356-0.237,0.475-0.831,0.475-2.256v-10.45c0-0.95-0.237-1.544-0.95-1.544l-0.237-0.119
		c-0.119,0-0.119,0-0.119,0c0-0.119,0-0.119,0.119-0.119l2.732-0.831h0.237c0.119,0,0.119,0,0.119,0.237L36.278,40.063
		L36.278,40.063z"/>
	<path fill="#1D1B1A" d="M58.484,34.838c0.237-0.357,0.475-0.476,0.712-0.476c0.476,0,0.357,0.476,0.357,0.831
		c0,2.137,0.475,4.275,1.544,5.7c0.831,1.306,2.137,1.9,4.038,1.9c3.8,0,5.7-2.375,5.7-7.363c0-5.344-2.018-8.075-5.819-8.075
		c-2.85,0-4.631,1.9-5.344,5.225c-0.119,1.306-1.662-0.712-3.206,3.8c-0.119,0.237-3.325,8.431-3.325,8.431
		c-0.119,0.475-0.356,1.069-0.594,1.425c-0.594,1.306-1.781,2.019-3.087,2.019c-1.069,0-1.662-0.475-1.662-1.069
		c0-0.475,0.357-0.831,0.831-0.831c0.475,0,0.831,0.119,1.187,0.594l0.119,0.356c0.119,0.119,0.356,0.237,0.475,0.237
		c0.356,0,0.831-0.237,1.187-0.594c0.475-0.594,0.712-1.069,1.187-2.375l0.356-0.831l-3.444-8.312l-0.237-0.475
		c-0.475-1.069-0.831-1.781-1.425-1.781l0,0c-0.712,0-1.187,0.951-1.9,2.732l-2.969,6.888c0,0.237-0.119,0.356-0.237,0.356
		c-0.119,0-0.237-0.119-0.237-0.356l-3.325-7.718c-0.475-1.187-0.831-1.781-1.425-1.9h-0.119l-0.237-0.119
		c0-0.119,0-0.119,0.119-0.119h4.631c0.119,0,0.119,0,0.119,0.119c0,0,0,0-0.119,0.119h-0.119c-0.712,0.119-0.95,0.476-0.95,1.069
		c0,0.119,0,0.357,0.119,0.594l2.375,5.7l1.781-4.631c0.237-0.594,0.356-1.069,0.356-1.425c0-0.712-0.356-1.069-0.951-1.306h-0.119
		c-0.119,0-0.237-0.119-0.237-0.119c0-0.119,0.119-0.119,0.237-0.119h8.192c0.119,0,0.119,0,0.119,0.119c0,0,0,0.119-0.119,0.119
		h-0.117h-0.119h-0.119c-0.831,0.237-1.187,0.594-1.187,1.306c0,0.237,0.119,0.594,0.237,0.831l2.375,6.056l2.019-5.462
		c0.237-0.594,1.306-3.325,1.306-3.325C58.602,29.138,61.334,27,65.134,27c4.75,0,8.075,3.325,8.075,8.312
		c0,4.631-3.444,7.956-8.075,7.956c-3.8,0-6.65-2.138-7.363-5.582C57.534,36.5,57.891,35.431,58.484,34.838L58.484,34.838z"/>
	<path fill="#1D1B1A" d="M80.334,32.701c2.256,0,3.444,1.187,3.444,3.681v4.869c0,0.831,0.475,1.424,1.306,1.424h0.119
		c0.119,0,0.237,0,0.237,0.119c0,0.119,0,0.119-0.237,0.119H80.69c-0.119,0-0.119,0-0.119-0.119c0-0.119,0-0.119,0.119-0.119h0.119
		c0.712,0,1.069-0.475,1.069-1.306v-5.462c0-1.663-0.831-2.612-2.137-2.612c-1.425,0-2.375,0.95-2.375,2.256v5.344
		c0,1.069,0.475,1.781,1.187,1.781h0.119c0.119,0,0.119,0,0.119,0.119c0,0.119,0,0.119-0.119,0.119h-4.394
		c-0.119,0-0.237,0-0.237-0.119c0-0.119,0.119-0.119,0.119-0.119h0.119c0.712,0,1.187-0.475,1.187-1.187v-6.175
		c0-0.831-0.356-1.306-0.95-1.306h-0.237c-0.119,0-0.237,0-0.237-0.119c0,0,0,0,0.119-0.119c0,0,0,0,0.119,0l2.612-0.831
		c0.119,0,0.119,0,0.237,0c0.119,0,0.119,0.119,0.119,0.357v0.95C77.959,33.175,78.909,32.701,80.334,32.701L80.334,32.701z"/>
	<path fill="#1D1B1A" d="M87.577,37.094c-0.119,0-0.237,0.119-0.237,0.356c0,3.087,1.425,5.107,3.681,5.107
		c1.544,0,2.969-1.069,3.444-2.494v-0.119l0,0c0.119-0.237,0.119-0.237,0.237-0.237c0.119,0,0.119,0,0.119,0.119
		c0,0.119,0,0.119,0,0.237v0.119c-0.594,1.781-2.256,2.969-4.275,2.969c-2.969,0-5.107-2.256-5.107-5.225
		c0-2.969,2.137-5.225,4.869-5.225c2.375,0,4.394,2.019,4.394,4.275c0,0.119,0,0.119-0.119,0.119L87.577,37.094L87.577,37.094z
		 M92.565,36.619c0.237,0,0.237,0,0.237-0.237c0-1.9-1.069-3.206-2.612-3.206c-1.662,0-2.85,1.187-2.85,3.444H92.565L92.565,36.619z
		"/>
	<path fill="#1D1B1A" d="M62.047,48.256c0.356,0.951,0.712,1.9,1.069,2.969h0.118c0.237-1.187,0.594-2.137,0.831-3.087l0.712,0.119
		l-1.425,3.919h-0.475c-0.356-0.95-0.831-1.9-1.187-3.087l0,0c-0.356,1.187-0.712,2.137-1.187,3.087h-0.356l-1.425-3.8l0.712-0.237
		c0.356,0.951,0.594,1.9,0.951,3.087l0,0c0.356-1.069,0.831-2.019,1.187-2.969L62.047,48.256L62.047,48.256z"/>
	<path fill="#1D1B1A" d="M65.015,50.157c0-1.306,0.95-2.019,2.019-2.019c0.95,0,1.9,0.712,1.9,2.019c0,1.187-0.831,2.137-1.9,2.137
		C65.846,52.294,65.015,51.344,65.015,50.157L65.015,50.157z M65.846,50.157c0,0.712,0.237,1.662,1.187,1.662
		c0.831,0,1.069-0.951,1.069-1.662c0-0.712-0.237-1.544-1.069-1.544C66.084,48.613,65.846,49.444,65.846,50.157L65.846,50.157z"/>
	<path fill="#1D1B1A" d="M70.359,48.731l0.237-0.357c0.237-0.119,0.475-0.237,0.594-0.237c0.237,0,0.475,0.119,0.712,0.357
		l-0.356,0.476c-0.119-0.119-0.356-0.119-0.476-0.119c-0.356,0-0.712,0.357-0.712,1.187v2.137h-0.712v-3.919h0.712L70.359,48.731
		L70.359,48.731z"/>
	<polygon fill="#1D1B1A" points="72.378,52.175 73.09,52.175 73.09,46.357 72.378,46.357 	"/>
	<path fill="#1D1B1A" d="M76.89,51.582L76.89,51.582c-0.237,0.357-0.712,0.712-1.306,0.712c-1.069,0-1.781-0.831-1.781-2.137
		c0-1.069,0.712-2.019,1.9-2.019c0.475,0,0.951,0.237,1.187,0.594l0,0v-2.375h0.712v5.818H76.89L76.89,51.582L76.89,51.582z
		 M76.89,50.038c0-0.712-0.356-1.425-1.187-1.425c-0.831,0-1.069,0.712-1.069,1.544c0,0.831,0.356,1.662,1.069,1.662
		C76.534,51.819,76.89,50.988,76.89,50.038L76.89,50.038z"/>
	<path fill="#1D1B1A" d="M81.403,48.256c0.475,0.951,0.831,1.9,1.187,2.969l0,0c0.357-1.187,0.594-2.137,0.951-3.087l0.712,0.119
		l-1.424,3.919h-0.476c-0.475-0.95-0.831-1.9-1.187-3.087l0,0c-0.475,1.187-0.831,2.137-1.187,3.087h-0.475l-1.306-3.8l0.594-0.237
		c0.356,0.951,0.712,1.9,1.069,3.087l0,0c0.356-1.069,0.712-2.019,1.069-2.969L81.403,48.256L81.403,48.256z"/>
	<path fill="#1D1B1A" d="M84.728,48.256h0.712v3.919h-0.712V48.256L84.728,48.256z M84.608,46.951c0-0.237,0.237-0.476,0.475-0.476
		c0.237,0,0.475,0.237,0.475,0.476c0,0.237-0.119,0.475-0.475,0.475C84.728,47.426,84.608,47.188,84.608,46.951L84.608,46.951z"/>
	<path fill="#1D1B1A" d="M89.24,51.582L89.24,51.582c-0.237,0.357-0.712,0.712-1.306,0.712c-1.069,0-1.781-0.831-1.781-2.137
		c0-1.069,0.712-2.019,1.781-2.019c0.594,0,1.069,0.237,1.306,0.594l0,0v-2.375h0.712v5.818H89.24V51.582L89.24,51.582z
		 M89.24,50.038c0-0.712-0.356-1.425-1.187-1.425c-0.831,0-1.069,0.712-1.069,1.544c0,0.831,0.357,1.662,1.069,1.662
		C88.884,51.819,89.24,50.988,89.24,50.038L89.24,50.038z"/>
	<path fill="#1D1B1A" d="M91.377,50.276c0,0.712,0.475,1.544,1.306,1.544c0.356,0,0.831-0.237,1.069-0.356l0.237,0.356
		c-0.475,0.237-0.95,0.475-1.306,0.475c-1.306,0-2.019-0.831-2.019-2.137c0-1.425,0.951-2.019,1.781-2.019
		c1.187,0,1.662,1.069,1.544,2.138L91.377,50.276L91.377,50.276z M93.396,49.801c0-0.594-0.356-1.187-0.951-1.187
		c-0.712,0-1.069,0.712-1.069,1.187H93.396L93.396,49.801z"/>
</g>
</svg>
