<?xml version="1.0" encoding="utf-8"?>
<!-- Generator: Adobe Illustrator 17.0.0, SVG Export Plug-In . SVG Version: 6.00 Build 0)  -->
<!DOCTYPE svg PUBLIC "-//W3C//DTD SVG 1.1//EN" "http://www.w3.org/Graphics/SVG/1.1/DTD/svg11.dtd">
<svg version="1.1" id="Layer_1" xmlns="http://www.w3.org/2000/svg" xmlns:xlink="http://www.w3.org/1999/xlink" x="0px" y="0px"
	 width="95px" height="68px" viewBox="0 0 95 68" enable-background="new 0 0 95 68" xml:space="preserve">
<g>
	<path fill="#1D1B1A" d="M38.213,40.698c-1.685,0-3.089,1.404-3.089,3.149c0,1.745,1.404,3.149,3.089,3.149
		c1.645,0,3.049-1.404,3.049-3.149C41.262,42.102,39.858,40.698,38.213,40.698z"/>
	<path fill="#1D1B1A" d="M27.539,40.698c-1.653,0-2.87,1.344-2.87,3.149s1.217,3.149,2.87,3.149c1.653,0,2.87-1.344,2.87-3.149
		S29.193,40.698,27.539,40.698z"/>
	<path fill="#1D1B1A" d="M36.442,4.733C22.56,4.733,7.5,19.508,7.5,33.39v21.832h51.84c13.884,0,28.16-14.631,28.16-28.515V4.733
		H36.442z M21.194,48.701h-2.086v-1.182h-0.041c-0.662,0.882-1.865,1.448-3.189,1.448c-3.189,0-5.034-2.611-5.034-5.119
		c0-2.387,1.986-5.115,5.135-5.115c1.444,0,2.547,0.621,3.089,1.444h0.04V39.98l2.086-0.987V48.701z M27.71,48.966
		c-1.293,0-2.528-0.645-3.004-1.448h-0.038v0.274l-1.976,0.908v-12.88h1.976v4.356h0.038c0.475-0.802,1.711-1.444,3.004-1.444
		c2.395,0,4.791,1.866,4.791,5.115C32.5,47.097,30.104,48.966,27.71,48.966z M43.268,48.701h-2.086v-1.182h-0.04
		c-0.662,0.882-1.865,1.448-3.189,1.448c-3.189,0-5.035-2.611-5.035-5.119c0-2.387,1.986-5.115,5.135-5.115
		c1.444,0,2.547,0.621,3.089,1.444h0.04V39.98l2.086-0.987V48.701z M49.161,48.954c-3.332-0.189-4.943-2.639-4.94-5.107
		c0.003-2.486,1.845-5.079,5.042-5.132c2.07-0.034,3.543,1.308,4.303,2.607l-1.801,0.865c-0.582-0.781-1.189-1.482-2.442-1.479
		c-1.697,0.004-2.895,1.477-2.895,3.14c0,1.581,1.087,2.883,2.649,3.113c1.397,0.204,2.259-0.723,2.954-1.816l1.728,1.01
		C52.733,47.777,51.183,49.068,49.161,48.954z M63.43,44.609c0,2.728-2.126,4.356-4.433,4.356c-2.307,0-4.433-1.628-4.433-4.356
		v-4.596l2.086-1.02v5.436c0,1.424,1.043,2.447,2.347,2.447s2.347-1.023,2.347-2.447v-5.436h2.086V44.609z M68.378,48.966
		c-1.645,0-3.364-1.157-4.314-2.359l1.345-1.366c0.546,0.96,1.986,1.996,3.069,1.996c1.203,0,1.926-0.681,1.926-1.223
		c0-0.642-0.501-0.983-1.263-1.123l-1.183-0.221c-2.727-0.507-3.234-1.364-3.234-2.748c0-1.645,1.207-3.11,3.634-3.11
		c1.344,0,2.449,0.322,3.773,1.265l-1.183,1.464c-1.024-0.862-1.847-1.004-2.529-1.004c-0.902,0-1.765,0.402-1.765,1.184
		c0,0.581,0.365,0.831,1.165,0.983l2.106,0.401c1.725,0.321,2.568,1.144,2.568,2.588C72.49,47.117,71.326,48.966,68.378,48.966z"/>
	<path fill="#1D1B1A" d="M16.139,40.698c-1.685,0-3.089,1.404-3.089,3.149c0,1.745,1.404,3.149,3.089,3.149
		c1.645,0,3.049-1.404,3.049-3.149C19.188,42.102,17.784,40.698,16.139,40.698z"/>
</g>
</svg>
