<?xml version="1.0" encoding="utf-8"?>
<!-- Generator: Adobe Illustrator 17.0.0, SVG Export Plug-In . SVG Version: 6.00 Build 0)  -->
<!DOCTYPE svg PUBLIC "-//W3C//DTD SVG 1.1//EN" "http://www.w3.org/Graphics/SVG/1.1/DTD/svg11.dtd">
<svg version="1.1" id="Layer_1" xmlns="http://www.w3.org/2000/svg" xmlns:xlink="http://www.w3.org/1999/xlink" x="0px" y="0px"
	 width="95px" height="68px" viewBox="0 0 95 68" enable-background="new 0 0 95 68" xml:space="preserve">
<path fill="#1D1B1A" d="M47.5,53.268c0.449,0,0.817,0.366,0.817,0.817c0,0.45-0.367,0.817-0.817,0.817
	c-0.45,0-0.817-0.366-0.817-0.817S47.05,53.268,47.5,53.268 M47.502,54.777c0.375,0,0.657-0.304,0.657-0.692
	c0-0.39-0.282-0.695-0.657-0.695c-0.381,0-0.662,0.304-0.662,0.695C46.84,54.473,47.121,54.777,47.502,54.777 M47.186,53.605h0.368
	c0.22,0,0.328,0.09,0.328,0.27c0,0.154-0.099,0.263-0.248,0.263l0.271,0.423h-0.164l-0.269-0.423h-0.128v0.423h-0.159L47.186,53.605
	L47.186,53.605z M47.345,54.017h0.183c0.123,0,0.197-0.025,0.197-0.15c0-0.106-0.097-0.139-0.197-0.139h-0.183V54.017z"/>
<path fill="#1D1B1A" d="M42.873,48.675l-1.113,5.19c-0.243-0.06-0.645-0.099-1.028-0.099c-3.85,0-6.594,3.124-6.594,6.633
	c0,2.158,1.329,3.508,3.349,3.508c1.209,0,2.237-0.483,2.803-1.148c0.177,0.705,0.864,1.068,1.673,1.068h0.357l3.24-15.151
	L42.873,48.675L42.873,48.675z M40.53,59.673c-0.16,0.726-0.401,1.351-0.767,1.774c-0.362,0.404-0.807,0.642-1.453,0.642
	c-0.906,0-1.472-0.62-1.472-1.772c0-2.336,1.695-4.858,3.75-4.858c0.302,0,0.665,0.06,0.807,0.141L40.53,59.673z M33.274,49.791
	c-0.927,0-1.833,0.849-1.833,1.796c0,0.705,0.506,1.19,1.188,1.19c0.929,0,1.854-0.847,1.854-1.794
	C34.483,50.278,33.962,49.791,33.274,49.791 M24.358,61.168c-0.1,0.439-0.695,2.739,1.715,2.739h0.364l2.817-13.44h-2.666
	L24.358,61.168z M29.544,61.168c-0.101,0.439-0.696,2.739,1.713,2.739h0.361l2.119-9.958h-2.661L29.544,61.168z M19.906,53.766
	c-1.412,0-2.661,0.463-3.607,1.251c-1.493,1.21-2.361,3.204-2.361,5.322c0,2.359,1.613,3.569,3.852,3.569
	c1.41,0,2.663-0.464,3.606-1.251c1.492-1.209,2.361-3.225,2.361-5.343C23.756,54.956,22.143,53.766,19.906,53.766 M19.802,61.184
	c-0.442,0.565-1.005,0.949-1.67,0.949c-1.069,0-1.491-0.746-1.491-1.795c0-1.128,0.423-2.804,1.249-3.85
	c0.445-0.566,1.029-0.95,1.695-0.95c1.07,0,1.469,0.747,1.469,1.795C21.053,58.463,20.631,60.138,19.802,61.184 M51.308,53.766
	c-3.666,0-6.592,2.964-6.592,6.653c0,2.158,1.231,3.488,3.246,3.488c1.211,0,2.236-0.483,2.803-1.148
	c0.181,0.705,0.88,1.068,1.684,1.068h0.355l1.946-9.091C53.749,54.123,52.574,53.766,51.308,53.766 M51.009,59.673
	c-0.162,0.726-0.382,1.351-0.747,1.774c-0.363,0.404-0.828,0.642-1.473,0.642c-0.907,0-1.368-0.602-1.368-1.751
	c0-2.058,1.49-4.878,3.828-4.878c0.242,0,0.465,0.06,0.622,0.161L51.009,59.673z M91.17,53.686c-1.28,0-2.373,0.577-3.068,1.351
	l-0.244-1.171h-2.032c0,0.828-0.132,1.98-0.499,3.702l-1.276,6.077h2.663l0.947-4.414c0.26-1.232,0.714-3.569,2.58-3.569
	c0.926,0,1.406,0.588,1.115,1.991l-0.711,3.432c-0.101,0.443-0.708,2.742,1.714,2.742h0.359l1.334-6.274
	C94.63,54.864,93.196,53.686,91.17,53.686 M91.17,53.686c-1.28,0-2.373,0.577-3.068,1.351l-0.244-1.171h-2.032
	c0,0.828-0.132,1.98-0.499,3.702l-1.276,6.077h2.663l0.947-4.414c0.26-1.232,0.714-3.569,2.58-3.569
	c0.926,0,1.406,0.588,1.115,1.991l-0.711,3.432c-0.101,0.443-0.708,2.742,1.714,2.742h0.359l1.334-6.274
	C94.63,54.864,93.196,53.686,91.17,53.686 M62.329,58.362c-0.264,1.232-0.698,3.57-2.583,3.57c-1.683,0-1.145-1.856-1.046-2.338
	l1.19-5.645h-2.66l-1.192,5.563c-0.122,0.585-0.242,1.19-0.242,1.694c0,0.726,0.26,1.309,0.664,1.753
	c-1.551,0.384-2.278,1.19-2.278,2.339c0,1.695,1.677,2.703,3.911,2.703c1.919,0,3.43-0.646,4.399-1.735
	c0.784-0.887,1.267-2.098,1.632-3.81l1.814-8.508h-2.661L62.329,58.362z M61.14,63.705c-0.204,0.787-0.567,1.493-1.09,1.997
	c-0.504,0.484-1.19,0.745-1.936,0.745c-0.926,0-1.695-0.445-1.695-1.231c0-1.005,0.99-1.248,2.44-1.41
	c1.031-0.119,1.935-0.363,2.461-0.825L61.14,63.705z M80.368,53.686c-1.28,0-2.37,0.577-3.07,1.351l-0.242-1.171h-2.035
	c0,0.828-0.128,1.98-0.497,3.702l-1.276,6.077h2.662l0.95-4.414c0.263-1.232,0.715-3.569,2.578-3.569c0.929,0,1.41,0.588,1.12,1.991
	l-0.716,3.432c-0.1,0.443-0.71,2.742,1.714,2.742h0.359l1.336-6.274C83.827,54.864,82.394,53.686,80.368,53.686 M71.508,48.227
	L68.81,61.163c-0.104,0.445-0.697,2.744,1.714,2.744h0.364l3.282-15.679H71.508z M12.235,48.152l-1.197,5.736l-0.002,0.014
	c-2.016,0.383-3.531,0.738-4.986,1.148l0.245-1.162l1.2-5.736h-2.66l-1.668,7.99c-0.385,0.167-0.782,0.356-1.251,0.596
	c-0.715,0.37-0.973,0.929-1.057,1.197c-0.052,0.184-0.064,0.518,0.03,0.781c0.639-0.255,1.267-0.495,1.893-0.725l-0.646,3.098
	c-0.1,0.443-0.696,2.743,1.714,2.743h0.366l1.378-6.595c1.49-0.404,3.007-0.751,4.983-1.131l-0.026,0.12l-1.014,4.863
	c-0.099,0.443-0.695,2.743,1.714,2.743h0.364l3.284-15.68L12.235,48.152L12.235,48.152z"/>
<path fill="#1D1B1A" d="M68.855,10.151V-0.133H26.145v42.71h42.709V13.694c-5.435,0.187-10.543,0.95-15.607,2.31
	c-2.174,7.76-3.688,16.018-4.374,23.43c-0.197,0.08-0.881,0.18-1.246,0.18c-1.721,0-2.711-0.689-2.711-2.327
	c0-3.972,1.557-12.261,3.521-19.814c-2.394,0.819-4.798,1.775-7.234,2.865c-1.125,4.779-1.922,9.747-2.32,14.617
	c-0.219,0.107-0.836,0.193-1.216,0.193c-1.381,0-2.338-0.919-2.338-2.484c0-2.641,0.517-6.314,1.306-10.144
	c-2.063,1.044-4.157,2.182-6.295,3.416c-0.216-0.407-0.281-0.962-0.233-1.28c0.068-0.461,0.354-1.448,1.447-2.234
	c2.137-1.535,3.353-2.133,5.887-3.492c1.125-4.614,2.538-9.062,3.825-11.84c0.817-1.764,1.863-2.445,3.658-2.445
	c0.474,0,1.128,0.112,1.467,0.22c-1.639,3.556-3.061,7.542-4.23,11.743c2.316-1.042,4.751-1.995,7.288-2.835
	c1.162-4.025,2.391-7.554,3.487-9.686c0.66-1.286,1.676-1.959,3.19-1.959c0.702,0,1.474,0.111,1.917,0.276
	c-1.362,3.066-2.597,6.426-3.702,9.932C58.878,11.171,63.712,10.397,68.855,10.151 M52.053,33.602h0.27l0.16,0.697h0.002
	l0.157-0.697h0.267v0.885h-0.172v-0.74h-0.002l-0.165,0.74h-0.182l-0.161-0.74h-0.003v0.74h-0.172v-0.885H52.053z M51.231,33.602
	h0.72v0.157h-0.267v0.727h-0.185v-0.727h-0.268V33.602z"/>
</svg>
