<?xml version="1.0" encoding="utf-8"?>
<!-- Generator: Adobe Illustrator 17.0.0, SVG Export Plug-In . SVG Version: 6.00 Build 0)  -->
<!DOCTYPE svg PUBLIC "-//W3C//DTD SVG 1.1//EN" "http://www.w3.org/Graphics/SVG/1.1/DTD/svg11.dtd">
<svg version="1.1" id="Layer_1" xmlns="http://www.w3.org/2000/svg" xmlns:xlink="http://www.w3.org/1999/xlink" x="0px" y="0px"
	 width="95px" height="68px" viewBox="0 0 95 68" enable-background="new 0 0 95 68" xml:space="preserve">
<g>
	<path fill="#1D1B1A" d="M33.774,27.117c-3.285,0-6.771,1.125-8.747,2.926c-1.576,1.435-2.381,3.411-2.381,5.406
		c0,2.01,0.769,3.973,2.381,5.414c2.124,1.913,5.312,2.941,8.747,2.941c3.443,0,6.699-1.016,8.769-2.941
		c1.532-1.421,2.347-3.482,2.347-5.414c0-1.998-0.764-3.964-2.347-5.401C40.32,28.029,37.411,27.117,33.774,27.117 M38.47,39.801
		c-1.183,1.173-2.87,1.804-4.696,1.804c-1.811,0-3.537-0.645-4.701-1.804c-1.12-1.113-1.716-2.686-1.716-4.352
		c0-1.68,0.592-3.254,1.716-4.366c1.163-1.151,2.895-1.794,4.701-1.794c1.797,0,3.525,0.645,4.696,1.794
		c1.127,1.113,1.716,2.681,1.716,4.366C40.187,37.197,39.644,38.632,38.47,39.801"/>
	<path fill="#1D1B1A" d="M16.489,34.487c-0.477-0.223-1.229-0.492-1.84-0.647c-1.197-0.288-3.894-0.652-5.191-0.786
		c-1.353-0.143-3.702-0.334-4.638-0.628c-0.286-0.087-0.863-0.364-0.863-1.038c0-0.477,0.262-0.885,0.785-1.214
		c0.834-0.516,2.514-0.841,4.267-0.841c2.07-0.005,3.821,0.463,4.941,0.965c0.378,0.17,0.82,0.412,1.176,0.7
		c0.395,0.327,0.958,0.997,1.159,1.937h1.867v-5.084h-2.087v0.594c0,0.189-0.196,0.434-0.572,0.23
		c-0.931-0.49-3.576-1.547-6.817-1.552c-1.838,0-3.922,0.342-5.697,1.137C1.343,28.991,0,30.169,0,32.13
		c0,1.757,1.12,2.793,1.091,2.766c0.48,0.436,1.246,1.188,3.249,1.624c0.897,0.196,2.817,0.497,4.723,0.696
		c1.895,0.206,3.763,0.388,4.521,0.584c0.603,0.155,1.617,0.364,1.617,1.498c0,1.132-1.067,1.476-1.256,1.552
		c-0.184,0.075-1.465,0.659-3.77,0.659c-1.699,0-3.743-0.509-4.487-0.773c-0.858-0.306-1.76-0.71-2.599-1.739
		C2.88,38.741,2.55,38.046,2.55,37.35H0.466v5.843h2.318v-0.79c0-0.09,0.111-0.46,0.5-0.283c0.485,0.221,1.908,0.785,3.389,1.098
		c1.217,0.255,2.003,0.434,3.518,0.434c2.468,0,3.799-0.403,4.715-0.664c0.863-0.247,1.93-0.691,2.8-1.384
		c0.468-0.373,1.496-1.331,1.496-3.077c0-1.663-0.897-2.701-1.212-3.021C17.562,35.078,17.039,34.744,16.489,34.487"/>
	<path fill="#1D1B1A" d="M61.592,29.9h1.915c0.883,0,1.033,0.342,1.043,1.154l0.102,6.192L54.46,28.048h-7.286v1.854h1.622
		c1.175,0,1.252,0.662,1.252,1.222v8.679c0,0.516,0.029,1.229-0.718,1.229h-2.004v1.854h8.559v-1.854h-2.095
		c-0.829,0-0.868-0.38-0.883-1.19v-7.431l11.739,10.476h2.987l-0.155-11.833c0.005-0.866,0.063-1.154,0.96-1.154h1.872v-1.849
		h-8.718L61.592,29.9L61.592,29.9z"/>
	<path fill="#1D1B1A" d="M86.195,40.999l-0.403-0.361l-0.039-0.398v-2.926l0.068-0.272c0.141-0.167,5.406-6.172,5.639-6.439
		c0.509-0.577,0.786-0.701,1.464-0.701h1.872v-1.854h-8.374v1.854h1.261c0.359,0,0.47,0.373,0.306,0.572l-3.549,4.163l-0.101-0.012
		l-3.477-4.158c-0.242-0.298-0.053-0.567,0.233-0.567h1.232v-1.852H72.104v1.854h1.813c0.795,0,1.314,0.495,1.605,0.822
		c0.237,0.262,5.44,6.161,5.576,6.333l0.126,0.257v2.926l-0.044,0.398l-0.398,0.361l-0.514,0.032h-1.818v1.854h10.168V41.03h-1.91
		L86.195,40.999z"/>
	<path fill="#1D1B1A" d="M93.967,42.043l-0.014-0.446c-0.019-0.344-0.16-0.405-0.296-0.463c0.155-0.094,0.339-0.226,0.339-0.592
		c0-0.524-0.407-0.664-0.81-0.664h-1.14v2.466h0.334v-1.055h0.805c0.403,0,0.441,0.235,0.441,0.436l0.058,0.618h0.408v-0.051
		L93.967,42.043z M93.153,41.001h-0.771v-0.839h0.829c0.165,0,0.446,0.032,0.446,0.415C93.657,40.94,93.4,41.001,93.153,41.001"/>
	<path fill="#1D1B1A" d="M92.992,39.13c-1.106,0-2.007,0.902-2.007,2.005c0,1.105,0.902,2.008,2.007,2.008
		c1.106,0,2.008-0.902,2.008-2.008C95,40.031,94.098,39.13,92.992,39.13 M92.992,42.909c-0.979,0-1.78-0.795-1.78-1.775
		s0.8-1.78,1.78-1.78c0.979,0,1.775,0.8,1.775,1.78C94.767,42.114,93.972,42.909,92.992,42.909"/>
</g>
</svg>
