<?xml version="1.0" encoding="utf-8"?>
<!-- Generator: Adobe Illustrator 16.0.0, SVG Export Plug-In . SVG Version: 6.00 Build 0)  -->
<!DOCTYPE svg PUBLIC "-//W3C//DTD SVG 1.1//EN" "http://www.w3.org/Graphics/SVG/1.1/DTD/svg11.dtd">
<svg version="1.1" id="Layer_1" xmlns="http://www.w3.org/2000/svg" xmlns:xlink="http://www.w3.org/1999/xlink" x="0px" y="0px"
     width="175px" height="40px" viewBox="0 0 175 40" enable-background="new 0 0 175 40" xml:space="preserve">
<g>
    <polygon fill="#292929" points="49.203,20 42.179,4.775 35.138,4.775 42.179,20 35.138,35.225 42.179,35.225  "/>
    <polygon fill="#292929" points="7.024,4.775 0,20 7.024,35.225 14.064,35.225 7.024,20 14.064,4.775  "/>
    <polygon fill="#292929" points="26.937,0.087 15.225,39.93 22.249,39.93 33.979,0.087    "/>
    <path fill="#292929" d="M64.5,6.916h-2.659V4.717H64.5V6.916z M61.842,8.406H64.5v9.7h-2.659V8.406z"/>
    <path fill="#292929" d="M66.59,8.406h2.537v1.353h0.062c0.677-1.092,1.828-1.614,2.95-1.614c2.828,0,3.552,1.599,3.552,3.997v5.964h-2.659v-5.472
        c0-1.599-0.478-2.383-1.706-2.383c-1.445,0-2.06,0.799-2.06,2.766v5.089H66.59V8.406z"/>
    <path fill="#292929" d="M78.287,10.189h-1.582V8.406h1.582V7.669c0-1.706,1.077-2.952,3.244-2.952c0.478,0,0.953,0.062,1.415,0.077v1.982
        c-0.323-0.03-0.646-0.045-0.985-0.045c-0.707,0-1.015,0.292-1.015,1.107v0.567h1.846v1.783h-1.846v7.917h-2.659V10.189z
         M87.048,6.916h-2.642V4.717h2.642V6.916z M84.406,8.406h2.642v9.7h-2.642V8.406z"/>
    <path fill="#292929" d="M89.171,8.406h2.537v1.353h0.045c0.677-1.092,1.846-1.614,2.95-1.614c2.846,0,3.552,1.599,3.552,3.997v5.964h-2.676v-5.472
        c0-1.599-0.443-2.383-1.707-2.383c-1.428,0-2.059,0.799-2.059,2.766v5.089h-2.643V8.406z"/>
    <path fill="#292929" d="M103.02,6.916h-2.676V4.717h2.676V6.916z M100.344,8.406h2.676v9.7h-2.676V8.406z"/>
    <path fill="#292929" d="M108.492,8.406h1.935v1.783h-1.935v4.796c0,0.907,0.214,1.139,1.104,1.139c0.293,0,0.571-0.032,0.83-0.077v2.075
        c-0.428,0.077-1.029,0.092-1.552,0.092c-1.612,0-3.059-0.368-3.059-2.306v-5.718h-1.598V8.406h1.598V5.501h2.676V8.406z"/>
    <path fill="#292929" d="M113.885,13.91c0.094,1.674,0.925,2.443,2.383,2.443c1.094,0,1.954-0.645,2.123-1.244h2.319
        c-0.737,2.274-2.319,3.258-4.518,3.258c-3.06,0-4.95-2.106-4.95-5.104c0-2.905,2.015-5.119,4.95-5.119
        c3.288,0,4.87,2.783,4.687,5.766H113.885z M118.237,12.219c-0.264-1.353-0.831-2.06-2.14-2.06c-1.656,0-2.149,1.306-2.213,2.06
        H118.237z"/>
    <path fill="#292929" d="M64.5,23.913h-2.659v-2.198H64.5V23.913z M61.842,25.421H64.5v9.666h-2.659V25.421z"/>
    <path fill="#292929" d="M66.667,25.421h2.522v1.289h0.03c0.692-0.966,1.707-1.567,2.967-1.567c1.214,0,2.306,0.462,2.828,1.631
        c0.552-0.846,1.567-1.631,2.92-1.631c2.06,0,3.552,0.97,3.552,3.457v6.487H78.81V29.6c0-1.273-0.107-2.368-1.629-2.368
        c-1.491,0-1.784,1.264-1.784,2.478v5.378h-2.659v-5.408c0-1.139,0.077-2.447-1.614-2.447c-0.522,0-1.799,0.339-1.799,2.229v5.626
        h-2.659V25.421z"/>
    <path fill="#292929" d="M83.468,28.386c0.154-2.473,2.382-3.243,4.549-3.243c1.92,0,4.258,0.447,4.258,2.751v5.059
        c0,0.876,0.075,1.751,0.339,2.135h-2.707c-0.074-0.274-0.168-0.598-0.184-0.921c-0.846,0.876-2.074,1.199-3.258,1.199
        c-1.845,0-3.306-0.906-3.306-2.905c0-2.198,1.662-2.721,3.306-2.936c1.612-0.263,3.134-0.184,3.134-1.293
        c0-1.119-0.767-1.289-1.721-1.289c-0.999,0-1.66,0.398-1.752,1.443H83.468z M89.6,30.37c-0.428,0.384-1.383,0.398-2.214,0.553
        c-0.813,0.169-1.567,0.462-1.567,1.413c0,1,0.769,1.229,1.646,1.229c2.075,0,2.135-1.627,2.135-2.229V30.37z"/>
    <path fill="#292929" d="M103.633,34.489c0,1.582-0.553,4.288-5.01,4.288c-1.905,0-4.134-0.891-4.273-3.104h2.661
        c0.229,0.966,1.045,1.305,1.966,1.305c1.491,0,2.168-0.98,2.153-2.398V33.32h-0.064c-0.567,1.015-1.736,1.507-2.905,1.507
        c-2.904,0-4.134-2.213-4.134-4.889c0-2.522,1.462-4.796,4.184-4.796c1.259,0,2.243,0.447,2.855,1.552h0.064v-1.273h2.503V34.489z
         M101.13,30.122c0-1.567-0.537-2.965-2.293-2.965c-1.473,0-2.135,1.323-2.135,2.751c0,1.383,0.522,2.905,2.135,2.905
        C100.359,32.813,101.13,31.505,101.13,30.122"/>
    <path fill="#292929" d="M108.521,23.913h-2.676v-2.198h2.676V23.913z M105.846,25.421h2.676v9.666h-2.676V25.421z"/>
    <path fill="#292929" d="M110.611,25.421h2.537v1.353h0.045c0.677-1.108,1.846-1.631,2.984-1.631c2.811,0,3.518,1.582,3.518,3.979v5.965h-2.643
        v-5.473c0-1.582-0.477-2.383-1.706-2.383c-1.462,0-2.06,0.816-2.06,2.801v5.055h-2.676V25.421z"/>
    <path fill="#292929" d="M121.635,28.386c0.153-2.473,2.383-3.243,4.531-3.243c1.955,0,4.259,0.447,4.259,2.751v5.059
        c0,0.876,0.109,1.751,0.338,2.135h-2.706c-0.074-0.274-0.169-0.598-0.184-0.921c-0.846,0.876-2.074,1.199-3.259,1.199
        c-1.846,0-3.288-0.906-3.288-2.905c0-2.198,1.661-2.721,3.288-2.936c1.646-0.263,3.169-0.184,3.169-1.293
        c0-1.119-0.801-1.289-1.722-1.289c-1.015,0-1.676,0.398-1.785,1.443H121.635z M127.783,30.37c-0.463,0.384-1.384,0.398-2.214,0.553
        c-0.831,0.169-1.602,0.462-1.602,1.413c0,1,0.786,1.229,1.646,1.229c2.074,0,2.169-1.627,2.169-2.229V30.37z"/>
    <path fill="#292929" d="M135.866,25.421h1.936v1.766h-1.936v4.796c0,0.891,0.215,1.139,1.14,1.139c0.259,0,0.537-0.015,0.796-0.094v2.074
        c-0.429,0.095-1.029,0.109-1.552,0.109c-1.612,0-3.06-0.368-3.06-2.289v-5.735h-1.597v-1.766h1.597v-2.905h2.676V25.421z"/>
    <path fill="#292929" d="M141.83,23.913h-2.676v-2.198h2.676V23.913z M139.154,25.421h2.676v9.666h-2.676V25.421z"/>
    <path fill="#292929" d="M148.641,25.143c3.06,0,5.01,2.029,5.01,5.118c0,3.075-1.95,5.104-5.01,5.104c-3.044,0-5.029-2.029-5.029-5.104
        C143.611,27.172,145.597,25.143,148.641,25.143 M148.641,33.351c1.796,0,2.367-1.552,2.367-3.09c0-1.552-0.571-3.104-2.367-3.104
        c-1.815,0-2.353,1.552-2.353,3.104C146.288,31.799,146.825,33.351,148.641,33.351"/>
    <path fill="#292929" d="M155.371,25.421h2.537v1.353h0.045c0.677-1.108,1.845-1.631,2.984-1.631c2.811,0,3.518,1.582,3.518,3.979v5.965h-2.643
        v-5.473c0-1.582-0.478-2.383-1.706-2.383c-1.462,0-2.06,0.816-2.06,2.801v5.055h-2.676V25.421z"/>
    <path fill="#292929" d="M168.543,31.952c0.016,1.169,1,1.612,2.045,1.612c0.786,0,1.736-0.273,1.736-1.229c0-0.781-1.09-1.075-2.995-1.508
        c-1.537-0.338-3.074-0.875-3.074-2.581c0-2.458,2.119-3.104,4.194-3.104c2.138,0,4.073,0.706,4.272,3.089h-2.502
        c-0.095-1.029-0.861-1.288-1.831-1.288c-0.582,0-1.492,0.09-1.492,0.891c0,0.936,1.507,1.074,3.029,1.428
        c1.553,0.353,3.074,0.939,3.074,2.721c0,2.552-2.213,3.383-4.427,3.383c-2.244,0-4.442-0.846-4.566-3.413H168.543z"/>
</g>
</svg>
